<svg width="1722" height="827" viewBox="0 0 1722 827" fill="none" xmlns="http://www.w3.org/2000/svg">
<rect width="1722" height="827" fill="#191D24"/>
<circle cx="859.753" cy="246.404" r="94.9772" fill="black" stroke="url(#paint0_linear_1901_2198)" stroke-width="14"/>
<mask id="mask0_1901_2198" style="mask-type:alpha" maskUnits="userSpaceOnUse" x="757" y="144" width="205" height="205">
<path d="M859.753 144.427L870.412 144.986L880.955 146.655L891.265 149.418L901.23 153.243L910.741 158.089L919.693 163.903L927.989 170.62L935.536 178.168L942.254 186.463L948.067 195.416L952.913 204.926L956.739 214.891L959.501 225.202L961.171 235.745L961.73 246.404L961.171 257.064L959.501 267.606L956.739 277.917L952.913 287.882L948.067 297.393L942.254 306.345L935.536 314.64L927.989 322.188L919.693 328.905L910.741 334.719L901.23 339.565L891.265 343.39L880.955 346.153L870.412 347.823L859.753 348.381L849.093 347.823L838.55 346.153L828.24 343.39L818.275 339.565L808.764 334.719L799.812 328.905L791.517 322.188L783.969 314.64L777.251 306.345L771.438 297.393L766.592 287.882L762.767 277.917L760.004 267.606L758.334 257.064L757.775 246.404L758.334 235.745L760.004 225.202L762.767 214.891L766.592 204.926L771.438 195.416L777.251 186.463L783.969 178.168L791.517 170.62L799.812 163.903L808.764 158.089L818.275 153.243L828.24 149.418L838.55 146.655L849.093 144.986L859.753 144.427Z" fill="white"/>
</mask>
<g mask="url(#mask0_1901_2198)">
<path d="M711.899 226.383L778.075 248.992M711.899 226.383C711.899 226.383 684.182 257.189 682.656 261.723C681.13 266.258 693.079 305.689 695.606 310.055C698.133 314.42 732.291 343.316 735.422 344.77M711.899 226.383C711.899 226.383 709.034 215.69 708.231 212.696C707.429 209.702 722.344 190.578 722.344 190.578M778.075 248.992C778.075 248.992 783.264 282.9 784.14 288.624M778.075 248.992C779.813 245.959 797.251 229.337 805.752 221.405M784.14 288.624C779.181 292.245 754.448 322.843 735.422 344.77M784.14 288.624C789.65 292.19 857.756 315.199 857.756 315.199M735.422 344.77C736.362 348.277 737.027 350.758 737.829 353.752C738.631 356.746 778.032 374.61 778.032 374.61M722.344 190.578L715.692 153.853C715.692 153.853 723.87 128.282 743.579 120.25M722.344 190.578L775.584 159.809M775.584 159.809L743.579 120.25M775.584 159.809L804.504 170.855M743.579 120.25L769.079 84.5374M805.752 221.405L809.547 189.674M805.752 221.405C805.752 221.405 841.778 242.008 883.36 256.079M809.547 189.674L869.454 190.584M809.547 189.674C806.682 187.141 804.992 176.073 804.504 170.855M869.454 190.584L904.868 212.267M869.454 190.584L859.598 153.801M904.868 212.267L902.118 242.801M904.868 212.267L930.974 180.517M902.118 242.801L897.969 249.414M902.118 242.801C902.118 242.801 936.448 251.939 971.102 255.49M897.969 249.414C897.969 249.414 888.417 252.89 883.36 256.079M897.969 249.414C897.969 249.414 911.679 258.118 950.888 305.831M883.36 256.079C870.814 294.28 857.756 315.199 857.756 315.199M857.756 315.199L778.032 374.61M857.756 315.199L874.047 342.007M778.032 374.61L783.251 386.506C792.068 391.8 805.968 400.165 816.947 406.816C825.689 412.112 832.579 416.321 833.576 417.03M804.504 170.855C807.445 168.233 817.328 154.125 821.902 147.398M821.902 147.398L824.766 117.292M821.902 147.398L859.598 153.801M824.766 117.292C799.88 99.2052 792.857 95.1275 769.079 84.5374M824.766 117.292L851.512 91.3299M769.079 84.5374C770.779 84.082 805.045 60.6901 812.694 58.6399C820.342 56.5897 851.096 74.4799 851.096 74.4799M851.096 74.4799L851.512 91.3299M851.096 74.4799L865.539 58.6911M851.512 91.3299L903.786 130.042M903.786 130.042L859.598 153.801M903.786 130.042L920.182 133.441C920.182 133.441 933.98 112.422 942.821 98.9531M865.539 58.6911C865.539 58.6911 906.887 83.8269 942.821 98.9531M865.539 58.6911L889.234 46.8408L923.282 46.4277L952.484 67.0251L962.578 87.6998M942.821 98.9531C950.268 93.5562 961.891 85.1335 961.891 85.1335L993.15 101.512M920.525 134.725L930.974 180.517M930.974 180.517C930.974 180.517 962.367 185.796 982.482 189.178M982.482 189.178C994.896 150.554 993.15 101.512 993.15 101.512M982.482 189.178C987.463 192.498 995.235 197.68 995.235 197.68M993.15 101.512C1005.88 110.938 1023.42 131.756 1030.6 140.987L1024.98 177.792M1024.98 177.792L995.235 197.68M1024.98 177.792L1056.79 201.356L1069.37 258.497M995.235 197.68L1003.83 229.758M1003.83 229.758L989.374 250.594M1003.83 229.758L1069.37 258.497M989.374 250.594C989.374 250.594 978.238 253.578 971.102 255.49M989.374 250.594C989.374 250.594 999.121 281.905 1000.7 314.947M971.102 255.49C963.208 275.149 961.588 272.708 950.888 305.831M950.888 305.831C953.081 314.015 956.504 326.789 956.504 326.789M1000.7 314.947C994.928 318.641 991.694 320.712 985.925 324.407M1000.7 314.947C1011.45 317.257 1028.24 320.861 1028.24 320.861M985.925 324.407C974.435 325.337 956.504 326.789 956.504 326.789M985.925 324.407C994.869 352.724 993.773 356.512 998.551 378.326M956.504 326.789C956.504 326.789 938.181 346.826 927.652 360.191M874.047 342.007C874.047 342.007 906.277 353.541 927.652 360.191M874.047 342.007C861.494 367.68 835.826 418.627 833.576 417.03M1069.37 258.497L1074.76 278.599L1058.21 301.829L1028.24 320.861M1028.24 320.861C1028.24 320.861 1010.3 355.127 998.551 378.326M998.551 378.326C993.795 380.975 937.847 386.34 937.847 386.34M937.847 386.34C937.847 386.34 931.979 369.575 927.652 360.191M937.847 386.34C937.847 386.34 937.198 397.516 936.3 400.965C935.403 404.415 898.846 443.09 892.481 444.796C886.115 446.502 838.16 434.138 836.441 427.722C834.722 421.307 833.576 417.03 833.576 417.03" stroke="url(#paint1_linear_1901_2198)" stroke-width="14"/>
</g>
<path d="M534.779 753.24H1184.99C1189.6 753.24 1193.33 749.507 1193.33 744.901C1193.33 740.302 1189.6 736.563 1184.99 736.563L1091.89 736.569V714.42H1092.21C1108.05 714.42 1141.3 711.612 1163.44 690.121C1192.76 661.652 1189.91 612.745 1189.78 610.68C1189.51 606.604 1186.33 603.319 1182.26 602.929C1180.66 602.778 1150.46 600.167 1123.33 612.634C1127.01 603.325 1129.43 593.067 1129.33 582.223C1128.95 539.578 1089.92 506.48 1088.25 505.097C1085.12 502.469 1080.54 502.515 1077.46 505.196C1075.82 506.614 1037.37 540.393 1037.76 583.038C1037.84 592.492 1039.89 601.429 1042.94 609.698C1017.33 598.551 990.036 600.127 988.514 600.22C984.438 600.487 981.152 603.68 980.763 607.75C980.565 609.808 976.245 658.617 1004.7 687.941C1026.23 710.123 1059.4 713.881 1075.21 714.351L1075.21 736.569H871.887V714.421C872.003 714.421 872.096 714.427 872.213 714.427C888.058 714.427 921.301 711.618 943.438 690.133C972.773 661.664 969.912 612.757 969.778 610.693C969.511 606.616 966.324 603.331 962.26 602.942C960.649 602.79 930.459 600.18 903.333 612.646C907.008 603.337 909.433 593.079 909.334 582.235C908.95 539.59 869.927 506.492 868.27 505.109C865.118 502.492 860.548 502.527 857.466 505.208C855.832 506.627 817.385 540.405 817.769 583.05C817.85 592.505 819.897 601.441 822.956 609.716C797.342 598.569 770.042 600.145 768.513 600.238C764.437 600.505 761.151 603.698 760.762 607.768C760.564 609.826 756.244 658.636 784.713 687.959C806.239 710.131 839.394 713.899 855.21 714.369V736.57H651.886V714.421H652.2C668.046 714.421 701.289 711.613 723.431 690.122C752.755 661.653 749.9 612.746 749.766 610.681C749.498 606.605 746.312 603.32 742.247 602.93C740.636 602.773 710.447 600.18 683.326 612.635C687.001 603.326 689.426 593.068 689.327 582.223C688.943 539.579 649.914 506.48 648.246 505.098C645.111 502.469 640.535 502.516 637.448 505.196C635.814 506.615 597.366 540.394 597.75 583.038C597.832 592.493 599.884 601.43 602.937 609.699C577.323 598.552 550.029 600.128 548.506 600.221C544.43 600.488 541.145 603.68 540.755 607.751C540.557 609.809 536.237 658.618 564.694 687.941C586.221 710.124 619.393 713.881 635.198 714.352L635.203 736.57H534.777C530.166 736.57 526.438 740.303 526.438 744.909C526.444 749.508 530.172 753.241 534.777 753.241L534.779 753.24ZM1173.17 619.286C1172.71 632.707 1169.55 660.966 1151.83 678.155C1134.11 695.355 1105.78 697.663 1092.34 697.71C1092.79 684.29 1095.95 656.03 1113.67 638.842C1131.41 621.647 1159.74 619.338 1173.17 619.286ZM1083.05 523.035C1092.85 532.938 1112.44 555.988 1112.68 582.368C1112.91 608.65 1093.72 632.125 1084.09 642.231C1074.28 632.329 1054.69 609.279 1054.45 582.898C1054.22 556.61 1073.42 533.135 1083.05 523.035ZM997.139 616.845C1010.55 617.293 1038.81 620.456 1056.01 638.167C1073.21 655.89 1075.52 684.249 1075.56 697.67C1062.18 697.246 1033.96 694.129 1016.69 676.33C999.494 658.613 997.186 630.276 997.139 616.845ZM953.162 619.287C952.714 632.708 949.551 660.967 931.828 678.156C914.105 695.362 885.746 697.663 872.325 697.711C872.749 684.314 875.866 656.107 893.665 638.843C911.394 621.648 939.735 619.339 953.162 619.287ZM863.045 523.036C872.849 532.939 892.427 555.989 892.671 582.369C892.903 608.651 873.709 632.126 864.08 642.232C854.276 632.33 834.686 609.28 834.454 582.899C834.216 556.611 853.422 533.136 863.045 523.036ZM777.132 616.834C790.518 617.258 818.73 620.375 836.001 638.174C853.201 655.897 855.515 684.256 855.568 697.677C842.171 697.252 813.97 694.136 796.7 676.337C779.483 658.602 777.174 630.255 777.132 616.834ZM733.167 619.288C732.743 632.685 729.626 660.886 711.827 678.156C694.104 695.357 665.769 697.664 652.33 697.712C652.778 684.291 655.941 656.032 673.665 638.843C691.4 621.643 719.758 619.34 733.167 619.288ZM643.039 523.037C652.842 532.939 672.432 555.989 672.67 582.37C672.903 608.652 653.709 632.127 644.079 642.233C634.276 632.33 614.686 609.28 614.448 582.9C614.215 556.611 633.409 533.137 643.039 523.037ZM557.132 616.846C570.546 617.294 598.806 620.457 616 638.169C633.201 655.892 635.508 684.251 635.556 697.671C622.17 697.247 593.958 694.13 576.687 676.331C559.487 658.614 557.179 630.278 557.132 616.846Z" fill="#4FCABB"/>
<path d="M859.556 118.59C864.957 118.59 869.323 114.348 869.323 109.114V61.4761C869.323 56.2492 864.957 52 859.556 52C854.155 52 849.79 56.2424 849.79 61.4761V109.121C849.796 114.355 854.155 118.59 859.556 118.59V118.59Z" fill="url(#paint2_linear_1901_2198)"/>
<path d="M922.855 135.123C924.307 135.957 925.882 136.348 927.444 136.348C930.678 136.348 933.815 134.661 935.526 131.631L958.67 90.83C961.204 86.3544 959.649 80.6476 955.196 78.094C950.737 75.5271 945.059 77.0972 942.525 81.5859L919.382 122.387C916.834 126.869 918.383 132.576 922.855 135.123V135.123Z" fill="url(#paint3_linear_1901_2198)"/>
<path d="M977.282 186.069C978.909 186.069 980.561 185.636 982.07 184.732L1022.75 160.301C1027.22 157.62 1028.69 151.767 1026.05 147.238C1023.42 142.715 1017.64 141.212 1013.17 143.892L972.488 168.323C968.021 171.003 966.545 176.857 969.189 181.386C970.933 184.399 974.062 186.069 977.282 186.069V186.069Z" fill="url(#paint4_linear_1901_2198)"/>
<path d="M986.522 243.911C986.608 249.266 990.832 253.547 996 253.547H996.159L1043.8 252.733C1049.03 252.644 1053.2 248.185 1053.11 242.762C1053.02 237.407 1048.8 233.126 1043.63 233.126H1043.47L995.835 233.94C990.62 234.029 986.45 238.495 986.522 243.911Z" fill="url(#paint5_linear_1901_2198)"/>
<path d="M983.798 303.543C979.171 301.038 973.352 302.712 970.832 307.287C968.292 311.862 969.992 317.604 974.618 320.109L1016.76 342.95C1018.22 343.734 1019.79 344.11 1021.34 344.11C1024.72 344.11 1028 342.33 1029.74 339.199C1032.28 334.624 1030.58 328.882 1025.95 326.377L983.798 303.543Z" fill="url(#paint6_linear_1901_2198)"/>
<path d="M926.181 354.397C921.762 357.131 920.381 362.962 923.104 367.413L947.836 407.972C949.604 410.878 952.687 412.476 955.842 412.476C957.525 412.476 959.214 412.02 960.739 411.076C965.158 408.342 966.539 402.511 963.816 398.06L939.083 357.501C936.36 353.044 930.58 351.65 926.181 354.398V354.397Z" fill="url(#paint7_linear_1901_2198)"/>
<path d="M863.342 373.419C858.14 373.598 854.063 377.98 854.234 383.208L855.806 430.832C855.977 435.961 860.165 440 865.215 440H865.538C870.739 439.822 874.816 435.439 874.645 430.211L873.073 382.587C872.909 377.346 868.609 373.181 863.342 373.419Z" fill="url(#paint8_linear_1901_2198)"/>
<path d="M787.667 362.505L765.64 404.767C763.214 409.411 764.991 415.147 769.581 417.598C770.971 418.34 772.48 418.691 773.955 418.691C777.332 418.691 780.604 416.85 782.283 413.617L804.309 371.355C806.736 366.711 804.959 360.974 800.368 358.523C795.785 356.086 790.086 357.848 787.667 362.505V362.505Z" fill="url(#paint9_linear_1901_2198)"/>
<path d="M739.232 311.855L698.818 337.379C694.376 340.182 693.079 346.012 695.912 350.408C697.721 353.231 700.813 354.764 703.959 354.764C705.715 354.764 707.484 354.284 709.08 353.284L749.493 327.759C753.936 324.956 755.233 319.126 752.4 314.73C749.566 310.347 743.661 309.045 739.232 311.854V311.855Z" fill="url(#paint10_linear_1901_2198)"/>
<path d="M675.477 264.201C675.635 264.201 675.801 264.201 675.96 264.195L723.583 261.916C728.814 261.669 732.849 257.409 732.577 252.408C732.313 247.407 727.717 243.476 722.631 243.799L675.007 246.078C669.776 246.325 665.742 250.585 666.013 255.586C666.284 260.435 670.464 264.201 675.477 264.201L675.477 264.201Z" fill="url(#paint11_linear_1901_2198)"/>
<path d="M690.716 171.332L733.088 193.038C734.458 193.739 735.913 194.059 737.336 194.059C740.78 194.059 744.112 192.138 745.778 188.808C748.129 184.09 746.272 178.345 741.616 175.95L699.245 154.244C694.589 151.868 688.905 153.756 686.554 158.461C684.197 163.192 686.06 168.944 690.716 171.333V171.332Z" fill="url(#paint12_linear_1901_2198)"/>
<path d="M776.461 137.439C778.279 140.19 781.308 141.675 784.377 141.675C786.169 141.675 787.988 141.167 789.601 140.105C793.973 137.221 795.17 131.355 792.273 126.994L765.965 87.3182C763.062 82.9567 757.183 81.7623 752.825 84.6525C748.453 87.5359 747.256 93.4019 750.153 97.7634L776.461 137.439Z" fill="url(#paint13_linear_1901_2198)"/>
<defs>
<linearGradient id="paint0_linear_1901_2198" x1="804.274" y1="144.427" x2="913.627" y2="342.288" gradientUnits="userSpaceOnUse">
<stop stop-color="#745EFF"/>
<stop offset="1" stop-color="#41DDCA"/>
</linearGradient>
<linearGradient id="paint1_linear_1901_2198" x1="790.806" y1="164.63" x2="929.136" y2="328.552" gradientUnits="userSpaceOnUse">
<stop stop-color="#7761FF"/>
<stop offset="1" stop-color="#40DBC8"/>
</linearGradient>
<linearGradient id="paint2_linear_1901_2198" x1="859.556" y1="52" x2="859.556" y2="118.59" gradientUnits="userSpaceOnUse">
<stop stop-color="#4FCABB"/>
<stop offset="1" stop-color="#4FCABB"/>
</linearGradient>
<linearGradient id="paint3_linear_1901_2198" x1="939.021" y1="76.8604" x2="939.021" y2="136.348" gradientUnits="userSpaceOnUse">
<stop stop-color="#4FCABB"/>
<stop offset="1" stop-color="#4FCABB"/>
</linearGradient>
<linearGradient id="paint4_linear_1901_2198" x1="997.62" y1="142.563" x2="997.62" y2="186.069" gradientUnits="userSpaceOnUse">
<stop stop-color="#4FCABB"/>
<stop offset="1" stop-color="#4FCABB"/>
</linearGradient>
<linearGradient id="paint5_linear_1901_2198" x1="1019.82" y1="233.126" x2="1019.82" y2="253.547" gradientUnits="userSpaceOnUse">
<stop stop-color="#4FCABB"/>
<stop offset="1" stop-color="#4FCABB"/>
</linearGradient>
<linearGradient id="paint6_linear_1901_2198" x1="1000.28" y1="302.38" x2="1000.28" y2="344.11" gradientUnits="userSpaceOnUse">
<stop stop-color="#4FCABB"/>
<stop offset="1" stop-color="#4FCABB"/>
</linearGradient>
<linearGradient id="paint7_linear_1901_2198" x1="943.46" y1="352.989" x2="943.46" y2="412.476" gradientUnits="userSpaceOnUse">
<stop stop-color="#4FCABB"/>
<stop offset="1" stop-color="#4FCABB"/>
</linearGradient>
<linearGradient id="paint8_linear_1901_2198" x1="864.44" y1="373.41" x2="864.44" y2="440" gradientUnits="userSpaceOnUse">
<stop stop-color="#4FCABB"/>
<stop offset="1" stop-color="#4FCABB"/>
</linearGradient>
<linearGradient id="paint9_linear_1901_2198" x1="784.975" y1="357.428" x2="784.975" y2="418.691" gradientUnits="userSpaceOnUse">
<stop stop-color="#4FCABB"/>
<stop offset="1" stop-color="#4FCABB"/>
</linearGradient>
<linearGradient id="paint10_linear_1901_2198" x1="724.156" y1="310.371" x2="724.156" y2="354.764" gradientUnits="userSpaceOnUse">
<stop stop-color="#4FCABB"/>
<stop offset="1" stop-color="#4FCABB"/>
</linearGradient>
<linearGradient id="paint11_linear_1901_2198" x1="699.295" y1="243.78" x2="699.295" y2="264.201" gradientUnits="userSpaceOnUse">
<stop stop-color="#4FCABB"/>
<stop offset="1" stop-color="#4FCABB"/>
</linearGradient>
<linearGradient id="paint12_linear_1901_2198" x1="716.165" y1="153.217" x2="716.165" y2="194.059" gradientUnits="userSpaceOnUse">
<stop stop-color="#4FCABB"/>
<stop offset="1" stop-color="#4FCABB"/>
</linearGradient>
<linearGradient id="paint13_linear_1901_2198" x1="771.213" y1="83.0754" x2="771.213" y2="141.675" gradientUnits="userSpaceOnUse">
<stop stop-color="#4FCABB"/>
<stop offset="1" stop-color="#4FCABB"/>
</linearGradient>
</defs>
</svg>
