<svg width="1722" height="827" viewBox="0 0 1722 827" fill="none" xmlns="http://www.w3.org/2000/svg">
<rect width="1722" height="827" fill="#191D24"/>
<circle cx="755" cy="271" r="158.75" fill="#2B303C" stroke="#6151C8" stroke-width="0.5"/>
<g clip-path="url(#clip0_1817_2198)">
<path fill-rule="evenodd" clip-rule="evenodd" d="M755 122.885C836.802 122.885 903.116 189.198 903.116 271C903.116 352.802 836.802 419.116 755 419.116C673.198 419.116 606.885 352.802 606.885 271C606.885 189.198 673.198 122.885 755 122.885Z" fill="#2E3148"/>
<path fill-rule="evenodd" clip-rule="evenodd" d="M754.715 185.549C801.909 185.549 840.166 223.807 840.166 271C840.166 318.193 801.909 356.451 754.715 356.451C707.522 356.451 669.264 318.193 669.264 271C669.264 223.807 707.522 185.549 754.715 185.549Z" fill="#161931"/>
<path fill-rule="evenodd" clip-rule="evenodd" d="M757.326 148.219C756.15 147.136 755.542 147.116 755.44 147.116C755.338 147.116 754.731 147.136 753.555 148.219C752.347 149.331 750.903 151.248 749.348 154.207C746.242 160.113 743.271 169.041 740.709 180.56C735.608 203.504 732.402 235.482 732.402 271C732.402 306.517 735.608 338.496 740.709 361.44C743.271 372.959 746.242 381.886 749.348 387.792C750.903 390.751 752.347 392.669 753.555 393.781C754.731 394.863 755.338 394.884 755.44 394.884C755.542 394.884 756.15 394.863 757.326 393.781C758.534 392.669 759.978 390.751 761.533 387.792C764.638 381.886 767.61 372.959 770.171 361.44C775.273 338.496 778.479 306.517 778.479 271C778.479 235.482 775.273 203.504 770.171 180.56C767.61 169.041 764.638 160.113 761.533 154.207C759.978 151.248 758.534 149.331 757.326 148.219ZM784.276 271C784.276 199.379 771.366 141.319 755.44 141.319C739.515 141.319 726.605 199.379 726.605 271C726.605 342.621 739.515 400.681 755.44 400.681C771.366 400.681 784.276 342.621 784.276 271Z" fill="#6F7390"/>
<path fill-rule="evenodd" clip-rule="evenodd" d="M862.782 211.238C863.132 209.679 862.846 209.145 862.796 209.06C862.746 208.973 862.426 208.458 860.898 207.981C859.33 207.491 856.945 207.2 853.603 207.333C846.931 207.599 837.709 209.491 826.445 213.034C804.011 220.09 774.696 233.305 743.918 251.064C713.139 268.823 687.031 287.586 669.699 303.474C660.997 311.451 654.747 318.487 651.181 324.127C649.394 326.953 648.455 329.162 648.096 330.762C647.746 332.32 648.032 332.854 648.081 332.94C648.131 333.026 648.452 333.541 649.979 334.019C651.547 334.509 653.932 334.799 657.274 334.666C663.946 334.4 673.169 332.509 684.432 328.966C706.866 321.909 736.181 308.694 766.959 290.936C797.738 273.177 823.847 254.413 841.179 238.525C849.881 230.549 856.131 223.513 859.696 217.872C861.483 215.046 862.423 212.838 862.782 211.238ZM643.062 335.84C651.025 349.623 707.793 331.767 769.856 295.956C831.92 260.147 875.778 219.943 867.815 206.16C859.853 192.377 803.085 210.233 741.021 246.043C678.957 281.853 635.099 322.056 643.062 335.84Z" fill="#6F7390"/>
<path fill-rule="evenodd" clip-rule="evenodd" d="M867.815 335.84C875.778 322.056 831.92 281.853 769.856 246.043C707.793 210.233 651.025 192.377 643.062 206.16C635.099 219.943 678.957 260.147 741.021 295.956C803.085 331.767 859.853 349.623 867.815 335.84ZM648.081 209.06C648.131 208.973 648.452 208.458 649.979 207.981C651.547 207.491 653.932 207.2 657.274 207.333C663.946 207.599 673.169 209.491 684.432 213.034C706.866 220.09 736.181 233.305 766.959 251.064C797.738 268.823 823.847 287.586 841.179 303.474C849.881 311.451 856.131 318.487 859.696 324.127C861.483 326.953 862.423 329.162 862.782 330.762C863.132 332.321 862.846 332.854 862.796 332.94C862.746 333.026 862.426 333.541 860.898 334.019C859.33 334.509 856.945 334.799 853.603 334.666C846.931 334.4 837.709 332.509 826.445 328.966C804.011 321.909 774.696 308.694 743.918 290.936C713.139 273.177 687.031 254.413 669.699 238.525C660.997 230.549 654.747 223.513 651.181 217.872C649.394 215.046 648.455 212.838 648.096 211.238C647.746 209.679 648.032 209.146 648.081 209.06Z" fill="#6F7390"/>
<path fill-rule="evenodd" clip-rule="evenodd" d="M672.553 234.683C677.589 234.683 681.672 238.768 681.672 243.807C681.672 248.846 677.589 252.93 672.553 252.93C667.517 252.93 663.434 248.846 663.434 243.807C663.434 238.768 667.517 234.683 672.553 234.683Z" fill="#B7B9C8"/>
<path fill-rule="evenodd" clip-rule="evenodd" d="M817.486 203.44C822.525 203.44 826.61 207.525 826.61 212.564C826.61 217.603 822.525 221.688 817.486 221.688C812.447 221.688 808.362 217.603 808.362 212.564C808.362 207.525 812.447 203.44 817.486 203.44Z" fill="#B7B9C8"/>
<path fill-rule="evenodd" clip-rule="evenodd" d="M737.064 346.642C742.103 346.642 746.188 350.725 746.188 355.761C746.188 360.798 742.103 364.88 737.064 364.88C732.025 364.88 727.94 360.798 727.94 355.761C727.94 350.725 732.025 346.642 737.064 346.642Z" fill="#B7B9C8"/>
<path fill-rule="evenodd" clip-rule="evenodd" d="M754.932 255.485C763.463 255.485 770.379 262.401 770.379 270.932C770.379 279.463 763.463 286.379 754.932 286.379C746.401 286.379 739.485 279.463 739.485 270.932C739.485 262.401 746.401 255.485 754.932 255.485Z" fill="#B7B9C8"/>
</g>
<circle cx="755" cy="271" r="158.75" fill="#2C303D" stroke="#6151C8" stroke-width="0.5"/>
<path d="M875.13 192.084C872.411 181.613 863.671 171.141 847.939 159.484C835.313 150.198 821.911 144.864 811.229 144.864C809.092 144.864 807.149 145.061 805.207 145.456C800.352 146.444 796.078 150.001 793.36 155.335C790.058 161.658 789.28 170.153 791.417 175.29C792.193 176.871 793.165 178.847 794.33 180.625C784.036 186.947 778.209 188.725 777.432 188.923C804.236 198.011 826.573 216.979 840.557 241.675L840.752 239.305C841.334 232.785 843.277 225.277 845.996 217.571C848.715 218.362 851.434 218.757 854.154 218.757C861.34 218.757 867.555 215.793 871.44 210.459C875.325 205.124 876.878 198.011 875.13 192.084Z" fill="#5E12A0"/>
<path d="M847.16 211.846C864.835 216.785 872.022 202.955 869.69 193.669C867.165 184.383 859.008 174.899 844.634 164.23C830.262 153.561 815.695 149.214 806.371 151.19C797.049 153.166 794.329 167.589 796.659 173.121C797.631 175.294 799.767 178.455 802.681 182.012C798.991 184.58 795.494 186.556 792.581 188.334C810.45 196.435 825.989 209.08 837.642 224.886C839.002 219.551 840.944 214.809 842.693 210.66C844.052 210.858 845.606 211.253 847.16 211.846Z" fill="url(#paint0_radial_1817_2198)"/>
<path d="M745.965 405.465C805.928 405.465 854.539 356.017 854.539 295.021C854.539 234.024 805.928 184.577 745.965 184.577C686 184.577 637.39 234.024 637.39 295.021C637.39 356.017 686 405.465 745.965 405.465Z" fill="url(#paint1_radial_1817_2198)"/>
<path opacity="0.6" d="M860.757 184.574C845.995 168.768 833.564 164.619 818.609 161.261C806.955 158.495 810.063 151.777 824.241 153.16C817.444 150.789 811.034 150.196 806.372 151.184C797.049 153.16 794.33 167.583 796.661 173.115C797.631 175.288 799.768 178.45 802.682 182.006C797.438 185.562 792.971 188.131 789.279 190.107C791.028 190.897 793.164 191.885 795.689 193.268C802.293 196.824 809.48 202.751 809.48 202.751C798.603 193.268 800.933 188.921 815.89 178.252C820.551 174.893 829.097 175.288 837.061 179.438C845.025 183.587 854.347 194.058 854.347 194.058L845.413 211.445C845.995 211.642 846.578 211.84 847.16 212.037C852.793 213.618 857.26 213.223 860.757 211.84C864.836 209.271 875.518 200.578 860.757 184.574Z" fill="#A98698"/>
<path d="M818.413 170.746C822.298 172.326 827.348 175.092 833.564 179.242C840.944 184.181 847.354 189.713 851.433 194.06C844.634 203.148 840.167 215.595 837.449 224.289C838.808 226.264 840.361 228.24 841.721 230.216C843.081 225.277 845.411 217.966 848.519 210.656C849.296 210.854 850.268 210.854 851.238 210.854C853.569 210.854 856.288 210.458 858.425 208.68C859.978 207.495 861.727 205.321 861.533 201.37C861.533 197.616 858.62 192.874 852.598 187.145C848.325 182.996 842.498 178.451 836.671 174.302C819.967 163.04 808.313 159.879 803.069 165.214C799.573 168.77 799.961 173.117 801.127 176.278C794.912 180.427 789.667 183.391 786.172 185.366C788.502 186.157 790.639 187.145 792.969 188.132C799.184 184.774 808.119 179.044 818.413 170.746ZM855.123 198.999C855.706 199.987 855.9 200.975 855.9 201.568C855.9 203.346 855.318 203.938 854.928 204.334C854.152 204.926 852.598 205.321 851.238 205.321C852.403 202.951 853.763 200.975 855.123 198.999ZM807.148 169.56C807.731 168.968 809.285 168.572 811.81 168.968C809.868 170.548 807.925 171.931 805.983 173.314C805.788 171.931 805.983 170.548 807.148 169.56Z" fill="#5E12A0"/>
<path d="M745.966 178.055C682.453 178.055 630.982 230.412 630.982 295.02C630.982 359.626 682.453 411.984 745.966 411.984C809.48 411.984 860.95 359.626 860.95 295.02C860.95 230.412 809.285 178.055 745.966 178.055ZM745.966 405.464C685.949 405.464 637.391 356.071 637.391 295.02C637.391 233.969 685.949 184.575 745.966 184.575C805.983 184.575 854.542 233.969 854.542 295.02C854.542 356.071 805.79 405.464 745.966 405.464Z" fill="#5E12A0"/>
<path opacity="0.6" d="M745.965 405.465C805.928 405.465 854.539 356.017 854.539 295.021C854.539 234.024 805.928 184.577 745.965 184.577C686 184.577 637.39 234.024 637.39 295.021C637.39 356.017 686 405.465 745.965 405.465Z" fill="url(#paint2_linear_1817_2198)"/>
<path opacity="0.6" d="M745.188 392.033C685.948 382.351 645.742 325.647 655.454 265.387C659.727 238.714 672.935 215.993 691.581 199.595C664.389 215.598 644.189 243.456 638.75 277.439C629.233 337.699 669.438 394.404 728.485 404.085C761.504 409.617 793.357 399.146 816.86 378.598C796.077 390.847 770.827 396.182 745.188 392.033Z" fill="#A98698"/>
<path opacity="0.6" d="M763.253 186.156C735.866 181.612 709.256 187.935 687.502 201.962C687.114 202.358 686.726 202.753 686.726 202.753C695.078 197.616 707.314 193.072 707.314 193.072C675.849 211.644 666.137 232.784 666.137 232.784C678.374 208.68 714.306 191.689 742.47 190.503C770.633 189.318 789.085 197.813 811.616 216.188C834.147 234.76 847.743 272.694 846.383 302.726C845.218 332.758 829.679 357.059 829.679 357.059C840.362 343.03 846.771 332.758 850.85 322.285C851.628 319.124 852.405 315.963 852.793 312.604C862.505 252.542 822.492 195.838 763.253 186.156Z" fill="url(#paint3_linear_1817_2198)"/>
<path d="M849.1 294.026C849.1 351.915 802.873 398.938 745.964 398.938C689.054 398.938 642.633 351.915 642.633 294.026H849.1Z" fill="url(#paint4_linear_1817_2198)"/>
<g opacity="0.6">
<path opacity="0.6" d="M840.943 294.026C840.943 350.532 797.047 396.765 741.885 398.938C743.245 398.938 744.605 398.938 745.964 398.938C802.874 398.938 849.101 351.915 849.101 294.026H840.943Z" fill="url(#paint5_linear_1817_2198)"/>
</g>
<g opacity="0.7">
<path opacity="0.7" d="M657.201 294.026H642.633C642.633 351.915 688.86 398.938 745.77 398.938C748.295 398.938 750.625 398.938 752.956 398.74C699.543 394.789 657.201 349.347 657.201 294.026Z" fill="url(#paint6_linear_1817_2198)"/>
</g>
<path d="M848.907 295.018C848.907 282.966 828.318 276.05 800.931 273.681C781.119 272.1 761.115 274.075 738.195 281.188C718.383 287.116 700.514 286.127 687.501 284.546C658.56 281.188 642.633 280.792 642.633 295.018C642.633 315.566 683.81 341.251 745.576 332.359C776.847 327.816 792.968 318.53 811.42 312.207C831.426 305.49 848.907 305.687 848.907 295.018Z" fill="url(#paint7_linear_1817_2198)"/>
<path d="M779.762 245.232C789.417 245.232 797.242 237.271 797.242 227.45C797.242 217.63 789.417 209.669 779.762 209.669C770.108 209.669 762.281 217.63 762.281 227.45C762.281 237.271 770.108 245.232 779.762 245.232Z" fill="white"/>
<path d="M808.313 258.472C812.39 258.472 815.695 255.111 815.695 250.964C815.695 246.818 812.39 243.456 808.313 243.456C804.238 243.456 800.933 246.818 800.933 250.964C800.933 255.111 804.238 258.472 808.313 258.472Z" fill="white"/>
<g opacity="0.6">
<path opacity="0.6" d="M834.731 213.231C834.537 213.231 834.343 213.231 834.343 213.231C833.177 213.034 832.401 211.848 832.594 210.465C834.343 201.377 841.724 192.683 842.113 192.288C842.889 191.3 844.443 191.3 845.22 192.091C846.191 192.881 846.191 194.461 845.414 195.252C845.22 195.449 838.421 203.55 836.868 211.453C836.674 212.638 835.703 213.231 834.731 213.231Z" fill="url(#paint8_linear_1817_2198)"/>
</g>
<path opacity="0.2" d="M738.812 377.41C741.816 377.41 744.251 374.933 744.251 371.878C744.251 368.823 741.816 366.346 738.812 366.346C735.809 366.346 733.374 368.823 733.374 371.878C733.374 374.933 735.809 377.41 738.812 377.41Z" fill="white"/>
<g opacity="0.4">
<path opacity="0.6" d="M735.672 375.485C733.536 373.311 733.536 369.756 735.672 367.582C736.061 367.187 736.449 366.99 736.838 366.594C736.061 366.792 735.478 367.187 734.895 367.779C732.759 369.953 732.759 373.51 734.895 375.682C736.643 377.461 739.363 377.856 741.499 376.671C739.557 377.461 737.226 377.066 735.672 375.485Z" fill="url(#paint9_linear_1817_2198)"/>
</g>
<path opacity="0.3" d="M740.722 370.294C741.366 370.294 741.887 369.764 741.887 369.109C741.887 368.454 741.366 367.923 740.722 367.923C740.078 367.923 739.557 368.454 739.557 369.109C739.557 369.764 740.078 370.294 740.722 370.294Z" fill="white"/>
<path opacity="0.2" d="M767.17 374.641C770.175 374.641 772.61 372.163 772.61 369.107C772.61 366.052 770.175 363.575 767.17 363.575C764.167 363.575 761.733 366.052 761.733 369.107C761.733 372.163 764.167 374.641 767.17 374.641Z" fill="white"/>
<g opacity="0.4">
<path opacity="0.6" d="M764.031 372.703C761.894 370.529 761.894 366.973 764.031 364.799C764.419 364.405 764.808 364.206 765.196 363.812C764.419 364.009 763.837 364.405 763.254 364.998C761.118 367.17 761.118 370.727 763.254 372.9C765.003 374.679 767.721 375.073 769.858 373.888C767.916 374.679 765.586 374.283 764.031 372.703Z" fill="url(#paint10_linear_1817_2198)"/>
</g>
<path opacity="0.3" d="M769.081 367.524C769.725 367.524 770.246 366.993 770.246 366.338C770.246 365.684 769.725 365.154 769.081 365.154C768.438 365.154 767.916 365.684 767.916 366.338C767.916 366.993 768.438 367.524 769.081 367.524Z" fill="white"/>
<path opacity="0.2" d="M753.151 387.488C755.403 387.488 757.23 385.631 757.23 383.34C757.23 381.048 755.403 379.191 753.151 379.191C750.898 379.191 749.072 381.048 749.072 383.34C749.072 385.631 750.898 387.488 753.151 387.488Z" fill="white"/>
<g opacity="0.4">
<path opacity="0.6" d="M750.82 385.946C749.266 384.365 749.266 381.6 750.82 380.019C751.014 379.821 751.402 379.624 751.597 379.426C751.014 379.624 750.626 380.019 750.237 380.414C748.683 381.994 748.683 384.761 750.237 386.342C751.597 387.724 753.539 387.921 755.288 386.934C753.733 387.527 751.985 387.132 750.82 385.946Z" fill="url(#paint11_linear_1817_2198)"/>
</g>
<path opacity="0.3" d="M754.51 381.951C754.939 381.951 755.286 381.597 755.286 381.161C755.286 380.724 754.939 380.37 754.51 380.37C754.081 380.37 753.733 380.724 753.733 381.161C753.733 381.597 754.081 381.951 754.51 381.951Z" fill="white"/>
<path opacity="0.2" d="M778.206 384.519C780.459 384.519 782.286 382.662 782.286 380.371C782.286 378.079 780.459 376.222 778.206 376.222C775.955 376.222 774.128 378.079 774.128 380.371C774.128 382.662 775.955 384.519 778.206 384.519Z" fill="white"/>
<g opacity="0.4">
<path opacity="0.6" d="M775.876 382.977C774.323 381.396 774.323 378.631 775.876 377.05C776.071 376.853 776.459 376.655 776.653 376.457C776.071 376.655 775.681 377.05 775.293 377.445C773.739 379.025 773.739 381.792 775.293 383.373C776.653 384.756 778.596 384.953 780.343 383.966C778.79 384.558 777.041 384.163 775.876 382.977Z" fill="url(#paint12_linear_1817_2198)"/>
</g>
<path opacity="0.3" d="M779.566 378.995C779.996 378.995 780.343 378.641 780.343 378.203C780.343 377.767 779.996 377.414 779.566 377.414C779.138 377.414 778.789 377.767 778.789 378.203C778.789 378.641 779.138 378.995 779.566 378.995Z" fill="white"/>
<path opacity="0.2" d="M715.665 375.431C720.599 375.431 724.599 371.361 724.599 366.342C724.599 361.323 720.599 357.254 715.665 357.254C710.73 357.254 706.73 361.323 706.73 366.342C706.73 371.361 710.73 375.431 715.665 375.431Z" fill="white"/>
<g opacity="0.4">
<path opacity="0.6" d="M710.62 372.075C707.124 368.518 707.124 362.788 710.62 359.233C711.203 358.64 711.786 358.244 712.563 357.849C711.397 358.244 710.426 359.034 709.455 359.826C705.959 363.381 705.959 369.111 709.455 372.668C712.368 375.631 716.836 376.224 720.332 374.05C717.03 375.433 713.145 374.84 710.62 372.075Z" fill="url(#paint13_linear_1817_2198)"/>
</g>
<path opacity="0.3" d="M718.775 363.577C719.847 363.577 720.717 362.693 720.717 361.601C720.717 360.51 719.847 359.626 718.775 359.626C717.702 359.626 716.832 360.51 716.832 361.601C716.832 362.693 717.702 363.577 718.775 363.577Z" fill="white"/>
<path opacity="0.2" d="M795.525 353.108C800.46 353.108 804.459 349.039 804.459 344.02C804.459 339.001 800.46 334.931 795.525 334.931C790.591 334.931 786.59 339.001 786.59 344.02C786.59 349.039 790.591 353.108 795.525 353.108Z" fill="white"/>
<g opacity="0.4">
<path opacity="0.6" d="M790.251 349.753C786.754 346.196 786.754 340.467 790.251 336.911C790.834 336.318 791.416 335.922 792.193 335.527C791.027 335.922 790.056 336.712 789.086 337.503C785.589 341.06 785.589 346.789 789.086 350.345C791.999 353.309 796.466 353.902 799.963 351.728C796.661 353.112 792.969 352.519 790.251 349.753Z" fill="url(#paint14_linear_1817_2198)"/>
</g>
<path opacity="0.3" d="M798.602 341.256C799.675 341.256 800.544 340.371 800.544 339.279C800.544 338.188 799.675 337.304 798.602 337.304C797.529 337.304 796.659 338.188 796.659 339.279C796.659 340.371 797.529 341.256 798.602 341.256Z" fill="white"/>
<circle cx="967.265" cy="271" r="150.5" fill="black" stroke="url(#paint15_linear_1817_2198)" stroke-width="17"/>
<mask id="mask0_1817_2198" style="mask-type:alpha" maskUnits="userSpaceOnUse" x="808" y="112" width="319" height="318">
<path d="M967.265 112L983.885 112.871L1000.32 115.475L1016.4 119.782L1031.94 125.746L1046.76 133.302L1060.72 142.366L1073.66 152.84L1085.42 164.608L1095.9 177.542L1104.96 191.5L1112.52 206.329L1118.48 221.866L1122.79 237.942L1125.39 254.38L1126.26 271L1125.39 287.62L1122.79 304.058L1118.48 320.134L1112.52 335.671L1104.96 350.5L1095.9 364.458L1085.42 377.392L1073.66 389.16L1060.72 399.634L1046.76 408.698L1031.94 416.254L1016.4 422.218L1000.32 426.525L983.885 429.129L967.265 430L950.645 429.129L934.207 426.525L918.131 422.218L902.594 416.254L887.765 408.698L873.807 399.634L860.873 389.16L849.105 377.392L838.631 364.458L829.567 350.5L822.011 335.671L816.047 320.134L811.739 304.058L809.136 287.62L808.265 271L809.136 254.38L811.739 237.942L816.047 221.866L822.011 206.329L829.567 191.5L838.631 177.542L849.105 164.608L860.873 152.84L873.807 142.366L887.765 133.302L902.594 125.746L918.131 119.782L934.207 115.475L950.645 112.871L967.265 112Z" fill="white"/>
</mask>
<g mask="url(#mask0_1817_2198)">
<path d="M736.735 239.783L839.916 275.034M736.735 239.783C736.735 239.783 693.519 287.815 691.14 294.885C688.761 301.955 707.392 363.435 711.332 370.242C715.272 377.049 768.531 422.103 773.413 424.368M736.735 239.783C736.735 239.783 732.268 223.111 731.017 218.443C729.766 213.774 753.021 183.956 753.021 183.956M839.916 275.034C839.916 275.034 848.006 327.902 849.372 336.828M839.916 275.034C842.625 270.305 869.813 244.389 883.069 232.022M849.372 336.828C841.639 342.474 803.077 390.182 773.413 424.368M849.372 336.828C857.963 342.388 964.151 378.263 964.151 378.263M773.413 424.368C774.878 429.837 775.914 433.705 777.165 438.373C778.416 443.041 839.848 470.895 839.848 470.895M753.021 183.956L742.649 126.696C742.649 126.696 755.4 86.8269 786.13 74.3043M753.021 183.956L836.032 135.982M836.032 135.982L786.13 74.3043M836.032 135.982L881.123 153.205M786.13 74.3043L825.889 18.6215M883.069 232.022L888.986 182.548M883.069 232.022C883.069 232.022 939.239 264.145 1004.07 286.084M888.986 182.548L982.39 183.966M888.986 182.548C884.519 178.599 881.883 161.341 881.123 153.205M982.39 183.966L1037.61 217.774M982.39 183.966L967.023 126.615M1037.61 217.774L1033.32 265.382M1037.61 217.774L1078.31 168.271M1033.32 265.382L1026.85 275.692M1033.32 265.382C1033.32 265.382 1086.85 279.63 1140.88 285.165M1026.85 275.692C1026.85 275.692 1011.96 281.113 1004.07 286.084M1026.85 275.692C1026.85 275.692 1048.23 289.263 1109.36 363.656M1004.07 286.084C984.512 345.647 964.151 378.263 964.151 378.263M964.151 378.263L839.848 470.895M964.151 378.263L989.553 420.06M839.848 470.895L847.986 489.442C861.733 497.696 883.406 510.739 900.524 521.109C914.154 529.366 924.896 535.93 926.451 537.034M881.123 153.205C885.709 149.118 901.118 127.12 908.249 116.632M908.249 116.632L912.714 69.6912M908.249 116.632L967.023 126.615M912.714 69.6912C873.913 41.4911 862.964 35.1332 825.889 18.6215M912.714 69.6912L954.416 29.2122M825.889 18.6215C828.539 17.9114 881.966 -18.5607 893.892 -21.7573C905.817 -24.9539 953.768 2.94 953.768 2.94M953.768 2.94L954.416 29.2122M953.768 2.94L976.286 -21.6775M954.416 29.2122L1035.92 89.5703M1035.92 89.5703L967.023 126.615M1035.92 89.5703L1061.48 94.8713C1061.48 94.8713 1083 62.0977 1096.78 41.0979M976.286 -21.6775C976.286 -21.6775 1040.76 17.5136 1096.78 41.0979M976.286 -21.6775L1013.23 -40.1541L1066.32 -40.7981L1111.85 -8.68327L1127.59 23.5521M1096.78 41.0979C1108.39 32.6833 1126.52 19.5509 1126.52 19.5509L1175.25 45.088M1062.02 96.8719L1078.31 168.271M1078.31 168.271C1078.31 168.271 1127.26 176.501 1158.62 181.775M1158.62 181.775C1177.98 121.552 1175.25 45.088 1175.25 45.088M1158.62 181.775C1166.39 186.951 1178.51 195.03 1178.51 195.03M1175.25 45.088C1195.1 59.7839 1222.45 92.2436 1233.64 106.637L1224.88 164.022M1224.88 164.022L1178.51 195.03M1224.88 164.022L1274.49 200.762L1294.1 289.854M1178.51 195.03L1191.91 245.046M1191.91 245.046L1169.37 277.532M1191.91 245.046L1294.1 289.854M1169.37 277.532C1169.37 277.532 1152 282.184 1140.88 285.165M1169.37 277.532C1169.37 277.532 1184.56 326.351 1187.02 377.87M1140.88 285.165C1128.57 315.818 1126.04 312.012 1109.36 363.656M1109.36 363.656C1112.78 376.417 1118.12 396.333 1118.12 396.333M1187.02 377.87C1178.03 383.63 1172.98 386.859 1163.99 392.619M1187.02 377.87C1203.79 381.471 1229.97 387.09 1229.97 387.09M1163.99 392.619C1146.07 394.069 1118.12 396.333 1118.12 396.333M1163.99 392.619C1177.93 436.771 1176.23 442.677 1183.67 476.688M1118.12 396.333C1118.12 396.333 1089.55 427.575 1073.13 448.413M989.553 420.06C989.553 420.06 1039.8 438.045 1073.13 448.413M989.553 420.06C969.98 460.09 929.959 539.525 926.451 537.034M1294.1 289.854L1302.5 321.197L1276.7 357.416L1229.97 387.09M1229.97 387.09C1229.97 387.09 1201.99 440.518 1183.67 476.688M1183.67 476.688C1176.26 480.819 1089.03 489.184 1089.03 489.184M1089.03 489.184C1089.03 489.184 1079.88 463.045 1073.13 448.413M1089.03 489.184C1089.03 489.184 1088.02 506.609 1086.62 511.987C1085.22 517.365 1028.22 577.667 1018.29 580.327C1008.37 582.986 933.598 563.709 930.918 553.706C928.238 543.703 926.451 537.034 926.451 537.034" stroke="url(#paint16_linear_1817_2198)" stroke-width="18"/>
</g>
<path d="M846.278 555.5C852.821 544.167 869.179 544.167 875.722 555.5L945.004 675.5C951.548 686.833 943.369 701 930.282 701H791.718C778.631 701 770.452 686.833 776.996 675.5L846.278 555.5Z" stroke="#4FCABB" stroke-width="36"/>
<path d="M1236 489H486" stroke="#4FCABB" stroke-width="36" stroke-linecap="round"/>
<defs>
<radialGradient id="paint0_radial_1817_2198" cx="0" cy="0" r="1" gradientUnits="userSpaceOnUse" gradientTransform="translate(866.147 181.221) scale(86.8102 88.3049)">
<stop stop-color="#FFEAFF" stop-opacity="0.6"/>
<stop offset="0.6807" stop-color="#A087C9"/>
<stop offset="1" stop-color="#10002F"/>
</radialGradient>
<radialGradient id="paint1_radial_1817_2198" cx="0" cy="0" r="1" gradientUnits="userSpaceOnUse" gradientTransform="translate(843.423 275.407) scale(243.124 263.025)">
<stop stop-color="#FFEAFF" stop-opacity="0.6"/>
<stop offset="0.6807" stop-color="#A087C9"/>
<stop offset="1" stop-color="#10002F"/>
</radialGradient>
<linearGradient id="paint2_linear_1817_2198" x1="728.548" y1="403.899" x2="764.451" y2="186.154" gradientUnits="userSpaceOnUse">
<stop stop-color="#81FFFF"/>
<stop offset="0.6202" stop-color="white" stop-opacity="0"/>
</linearGradient>
<linearGradient id="paint3_linear_1817_2198" x1="822.484" y1="220.014" x2="731.303" y2="302.259" gradientUnits="userSpaceOnUse">
<stop offset="0.2888" stop-color="white"/>
<stop offset="0.7796" stop-color="white" stop-opacity="0"/>
</linearGradient>
<linearGradient id="paint4_linear_1817_2198" x1="642.721" y1="346.42" x2="849.05" y2="346.42" gradientUnits="userSpaceOnUse">
<stop stop-color="#0002E9"/>
<stop offset="0.9952" stop-color="#FF00C7"/>
</linearGradient>
<linearGradient id="paint5_linear_1817_2198" x1="858.818" y1="303.232" x2="744.706" y2="409.248" gradientUnits="userSpaceOnUse">
<stop offset="0.2888" stop-color="white"/>
<stop offset="0.7796" stop-color="white" stop-opacity="0"/>
</linearGradient>
<linearGradient id="paint6_linear_1817_2198" x1="642.721" y1="346.42" x2="753.106" y2="346.42" gradientUnits="userSpaceOnUse">
<stop stop-color="#000292"/>
<stop offset="0.9952" stop-color="#7D00C7"/>
</linearGradient>
<linearGradient id="paint7_linear_1817_2198" x1="642.859" y1="303.734" x2="848.912" y2="303.734" gradientUnits="userSpaceOnUse">
<stop stop-color="#000292"/>
<stop offset="0.9952" stop-color="#BE00C7"/>
</linearGradient>
<linearGradient id="paint8_linear_1817_2198" x1="845.536" y1="191.326" x2="830.356" y2="215.574" gradientUnits="userSpaceOnUse">
<stop offset="0.2888" stop-color="white"/>
<stop offset="0.7796" stop-color="white" stop-opacity="0"/>
</linearGradient>
<linearGradient id="paint9_linear_1817_2198" x1="733.287" y1="372.098" x2="741.505" y2="372.098" gradientUnits="userSpaceOnUse">
<stop offset="0.2888" stop-color="white"/>
<stop offset="0.7796" stop-color="white" stop-opacity="0"/>
</linearGradient>
<linearGradient id="paint10_linear_1817_2198" x1="761.627" y1="369.278" x2="769.844" y2="369.278" gradientUnits="userSpaceOnUse">
<stop offset="0.2888" stop-color="white"/>
<stop offset="0.7796" stop-color="white" stop-opacity="0"/>
</linearGradient>
<linearGradient id="paint11_linear_1817_2198" x1="748.962" y1="383.417" x2="755.132" y2="383.417" gradientUnits="userSpaceOnUse">
<stop offset="0.2888" stop-color="white"/>
<stop offset="0.7796" stop-color="white" stop-opacity="0"/>
</linearGradient>
<linearGradient id="paint12_linear_1817_2198" x1="774.019" y1="380.449" x2="780.188" y2="380.449" gradientUnits="userSpaceOnUse">
<stop offset="0.2888" stop-color="white"/>
<stop offset="0.7796" stop-color="white" stop-opacity="0"/>
</linearGradient>
<linearGradient id="paint13_linear_1817_2198" x1="706.744" y1="366.577" x2="720.164" y2="366.577" gradientUnits="userSpaceOnUse">
<stop offset="0.2888" stop-color="white"/>
<stop offset="0.7796" stop-color="white" stop-opacity="0"/>
</linearGradient>
<linearGradient id="paint14_linear_1817_2198" x1="786.449" y1="344.247" x2="799.869" y2="344.247" gradientUnits="userSpaceOnUse">
<stop offset="0.2888" stop-color="white"/>
<stop offset="0.7796" stop-color="white" stop-opacity="0"/>
</linearGradient>
<linearGradient id="paint15_linear_1817_2198" x1="880.765" y1="112" x2="1051.26" y2="420.5" gradientUnits="userSpaceOnUse">
<stop stop-color="#745EFF"/>
<stop offset="1" stop-color="#41DDCA"/>
</linearGradient>
<linearGradient id="paint16_linear_1817_2198" x1="859.765" y1="143.5" x2="1075.45" y2="399.082" gradientUnits="userSpaceOnUse">
<stop stop-color="#7761FF"/>
<stop offset="1" stop-color="#40DBC8"/>
</linearGradient>
<clipPath id="clip0_1817_2198">
<rect width="296.8" height="296.8" fill="white" transform="translate(606.6 122.6)"/>
</clipPath>
</defs>
</svg>
