<svg width="1722" height="827" viewBox="0 0 1722 827" fill="none" xmlns="http://www.w3.org/2000/svg">
<rect width="1722" height="827" fill="#191D24"/>
<circle cx="1257" cy="414" r="150.5" fill="black" stroke="url(#paint0_linear_1804_2198)" stroke-width="17"/>
<mask id="mask0_1804_2198" style="mask-type:alpha" maskUnits="userSpaceOnUse" x="1098" y="255" width="318" height="318">
<path d="M1257 255L1273.62 255.871L1290.06 258.475L1306.13 262.782L1321.67 268.746L1336.5 276.302L1350.46 285.366L1363.39 295.84L1375.16 307.608L1385.63 320.542L1394.7 334.5L1402.25 349.329L1408.22 364.866L1412.53 380.942L1415.13 397.38L1416 414L1415.13 430.62L1412.53 447.058L1408.22 463.134L1402.25 478.671L1394.7 493.5L1385.63 507.458L1375.16 520.392L1363.39 532.16L1350.46 542.634L1336.5 551.698L1321.67 559.254L1306.13 565.218L1290.06 569.525L1273.62 572.129L1257 573L1240.38 572.129L1223.94 569.525L1207.87 565.218L1192.33 559.254L1177.5 551.698L1163.54 542.634L1150.61 532.16L1138.84 520.392L1128.37 507.458L1119.3 493.5L1111.75 478.671L1105.78 463.134L1101.47 447.058L1098.87 430.62L1098 414L1098.87 397.38L1101.47 380.942L1105.78 364.866L1111.75 349.329L1119.3 334.5L1128.37 320.542L1138.84 307.608L1150.61 295.84L1163.54 285.366L1177.5 276.302L1192.33 268.746L1207.87 262.782L1223.94 258.475L1240.38 255.871L1257 255Z" fill="white"/>
</mask>
<g mask="url(#mask0_1804_2198)">
<path d="M1026.47 382.783L1129.65 418.034M1026.47 382.783C1026.47 382.783 983.254 430.815 980.875 437.885C978.496 444.955 997.127 506.435 1001.07 513.242C1005.01 520.049 1058.27 565.103 1063.15 567.368M1026.47 382.783C1026.47 382.783 1022 366.111 1020.75 361.443C1019.5 356.774 1042.76 326.956 1042.76 326.956M1129.65 418.034C1129.65 418.034 1137.74 470.902 1139.11 479.828M1129.65 418.034C1132.36 413.305 1159.55 387.389 1172.8 375.022M1139.11 479.828C1131.37 485.474 1092.81 533.182 1063.15 567.368M1139.11 479.828C1147.7 485.388 1253.89 521.263 1253.89 521.263M1063.15 567.368C1064.61 572.837 1065.65 576.705 1066.9 581.373C1068.15 586.041 1129.58 613.895 1129.58 613.895M1042.76 326.956L1032.38 269.696C1032.38 269.696 1045.14 229.827 1075.87 217.304M1042.76 326.956L1125.77 278.982M1125.77 278.982L1075.87 217.304M1125.77 278.982L1170.86 296.205M1075.87 217.304L1115.62 161.621M1172.8 375.022L1178.72 325.548M1172.8 375.022C1172.8 375.022 1228.97 407.145 1293.81 429.084M1178.72 325.548L1272.13 326.966M1178.72 325.548C1174.25 321.598 1171.62 304.341 1170.86 296.205M1272.13 326.966L1327.34 360.774M1272.13 326.966L1256.76 269.615M1327.34 360.774L1323.06 408.382M1327.34 360.774L1368.05 311.271M1323.06 408.382L1316.59 418.692M1323.06 408.382C1323.06 408.382 1376.58 422.63 1430.61 428.165M1316.59 418.692C1316.59 418.692 1301.69 424.113 1293.81 429.084M1316.59 418.692C1316.59 418.692 1337.96 432.263 1399.1 506.656M1293.81 429.084C1274.25 488.647 1253.89 521.263 1253.89 521.263M1253.89 521.263L1129.58 613.895M1253.89 521.263L1279.29 563.06M1129.58 613.895L1137.72 632.442C1151.47 640.696 1173.14 653.739 1190.26 664.109C1203.89 672.366 1214.63 678.93 1216.19 680.034M1170.86 296.205C1175.44 292.118 1190.85 270.12 1197.98 259.632M1197.98 259.632L1202.45 212.691M1197.98 259.632L1256.76 269.615M1202.45 212.691C1163.65 184.491 1152.7 178.133 1115.62 161.621M1202.45 212.691L1244.15 172.212M1115.62 161.621C1118.27 160.911 1171.7 124.439 1183.63 121.243C1195.55 118.046 1243.5 145.94 1243.5 145.94M1243.5 145.94L1244.15 172.212M1243.5 145.94L1266.02 121.323M1244.15 172.212L1325.65 232.57M1325.65 232.57L1256.76 269.615M1325.65 232.57L1351.22 237.871C1351.22 237.871 1372.73 205.098 1386.52 184.098M1266.02 121.323C1266.02 121.323 1330.49 160.514 1386.52 184.098M1266.02 121.323L1302.97 102.846L1356.05 102.202L1401.58 134.317L1417.32 166.552M1386.52 184.098C1398.13 175.683 1416.25 162.551 1416.25 162.551L1464.99 188.088M1351.75 239.872L1368.05 311.271M1368.05 311.271C1368.05 311.271 1416.99 319.501 1448.36 324.775M1448.36 324.775C1467.71 264.552 1464.99 188.088 1464.99 188.088M1448.36 324.775C1456.12 329.951 1468.24 338.03 1468.24 338.03M1464.99 188.088C1484.83 202.784 1512.18 235.244 1523.38 249.636L1514.61 307.022M1514.61 307.022L1468.24 338.03M1514.61 307.022L1564.22 343.762L1583.83 432.854M1468.24 338.03L1481.64 388.046M1481.64 388.046L1459.1 420.532M1481.64 388.046L1583.83 432.854M1459.1 420.532C1459.1 420.532 1441.74 425.184 1430.61 428.165M1459.1 420.532C1459.1 420.532 1474.3 469.351 1476.76 520.87M1430.61 428.165C1418.3 458.818 1415.78 455.012 1399.1 506.656M1399.1 506.656C1402.51 519.417 1407.85 539.333 1407.85 539.333M1476.76 520.87C1467.76 526.63 1462.72 529.859 1453.72 535.619M1476.76 520.87C1493.53 524.471 1519.7 530.09 1519.7 530.09M1453.72 535.619C1435.81 537.069 1407.85 539.333 1407.85 539.333M1453.72 535.619C1467.67 579.77 1465.96 585.677 1473.41 619.688M1407.85 539.333C1407.85 539.333 1379.28 570.575 1362.87 591.413M1279.29 563.06C1279.29 563.06 1329.54 581.045 1362.87 591.413M1279.29 563.06C1259.72 603.09 1219.69 682.525 1216.19 680.034M1583.83 432.854L1592.23 464.197L1566.43 500.416L1519.7 530.09M1519.7 530.09C1519.7 530.09 1491.73 583.518 1473.41 619.688M1473.41 619.688C1466 623.819 1378.76 632.183 1378.76 632.183M1378.76 632.183C1378.76 632.183 1369.61 606.045 1362.87 591.413M1378.76 632.183C1378.76 632.183 1377.75 649.609 1376.35 654.987C1374.95 660.365 1317.95 720.667 1308.03 723.327C1298.1 725.986 1223.33 706.709 1220.65 696.706C1217.97 686.703 1216.19 680.034 1216.19 680.034" stroke="url(#paint1_linear_1804_2198)" stroke-width="18"/>
</g>
<path d="M882 401C874.82 401 869 406.82 869 414C869 421.18 874.82 427 882 427V401ZM1061.19 423.192C1066.27 418.116 1066.27 409.884 1061.19 404.808L978.461 322.076C973.384 316.999 965.153 316.999 960.076 322.076C954.999 327.153 954.999 335.384 960.076 340.461L1033.62 414L960.076 487.539C954.999 492.616 954.999 500.847 960.076 505.924C965.153 511.001 973.384 511.001 978.461 505.924L1061.19 423.192ZM882 427L1052 427V401L882 401V427Z" fill="#4FCABB"/>
<circle cx="677" cy="414" r="158.75" fill="#2C303D" stroke="#6151C8" stroke-width="0.5"/>
<path d="M797.13 335.084C794.411 324.613 785.671 314.141 769.939 302.485C757.313 293.199 743.911 287.864 733.229 287.864C731.092 287.864 729.149 288.062 727.207 288.457C722.352 289.445 718.078 293.001 715.36 298.335C712.058 304.658 711.28 313.154 713.417 318.29C714.193 319.871 715.165 321.847 716.33 323.625C706.036 329.947 700.209 331.726 699.432 331.923C726.236 341.012 748.573 359.979 762.557 384.676L762.752 382.305C763.334 375.785 765.277 368.277 767.996 360.572C770.715 361.362 773.434 361.757 776.154 361.757C783.34 361.757 789.555 358.793 793.44 353.459C797.325 348.124 798.878 341.012 797.13 335.084Z" fill="#5E12A0"/>
<path d="M769.16 354.846C786.835 359.785 794.021 345.955 791.69 336.669C789.165 327.383 781.008 317.899 766.634 307.23C752.262 296.561 737.695 292.215 728.371 294.19C719.048 296.166 716.329 310.589 718.659 316.121C719.631 318.294 721.767 321.456 724.681 325.012C720.991 327.581 717.494 329.556 714.581 331.334C732.45 339.435 747.989 352.08 759.642 367.886C761.002 362.551 762.944 357.809 764.693 353.66C766.051 353.858 767.606 354.253 769.16 354.846Z" fill="url(#paint2_radial_1804_2198)"/>
<path d="M667.965 548.465C727.928 548.465 776.539 499.018 776.539 438.021C776.539 377.024 727.928 327.577 667.965 327.577C608 327.577 559.39 377.024 559.39 438.021C559.39 499.018 608 548.465 667.965 548.465Z" fill="url(#paint3_radial_1804_2198)"/>
<path opacity="0.6" d="M782.757 327.575C767.995 311.769 755.564 307.62 740.609 304.261C728.955 301.495 732.062 294.777 746.241 296.16C739.444 293.789 733.034 293.197 728.372 294.184C719.048 296.16 716.33 310.583 718.66 316.115C719.631 318.289 721.768 321.45 724.682 325.006C719.438 328.563 714.97 331.131 711.279 333.107C713.028 333.897 715.164 334.885 717.689 336.268C724.293 339.824 731.48 345.751 731.48 345.751C720.603 336.268 722.933 331.921 737.889 321.252C742.551 317.894 751.096 318.289 759.06 322.438C767.024 326.587 776.347 337.058 776.347 337.058L767.412 354.445C767.995 354.642 768.578 354.84 769.16 355.038C774.793 356.618 779.26 356.223 782.757 354.84C786.836 352.271 797.518 343.578 782.757 327.575Z" fill="#A98698"/>
<path d="M740.413 313.746C744.298 315.327 749.348 318.093 755.564 322.242C762.944 327.181 769.354 332.713 773.433 337.06C766.634 346.148 762.167 358.596 759.449 367.289C760.808 369.265 762.361 371.24 763.721 373.216C765.081 368.277 767.411 360.967 770.519 353.656C771.296 353.854 772.268 353.854 773.238 353.854C775.569 353.854 778.288 353.459 780.425 351.68C781.978 350.495 783.727 348.322 783.533 344.37C783.533 340.616 780.62 335.875 774.598 330.145C770.325 325.996 764.498 321.452 758.671 317.302C741.967 306.041 730.313 302.879 725.069 308.214C721.573 311.77 721.961 316.117 723.127 319.278C716.912 323.427 711.667 326.391 708.172 328.367C710.502 329.157 712.639 330.145 714.969 331.133C721.184 327.774 730.119 322.044 740.413 313.746ZM777.123 341.999C777.706 342.987 777.9 343.975 777.9 344.568C777.9 346.346 777.318 346.939 776.928 347.334C776.152 347.927 774.598 348.322 773.238 348.322C774.403 345.951 775.763 343.975 777.123 341.999ZM729.148 312.561C729.731 311.968 731.285 311.573 733.81 311.968C731.868 313.549 729.925 314.932 727.983 316.315C727.788 314.932 727.983 313.549 729.148 312.561Z" fill="#5E12A0"/>
<path d="M667.966 321.055C604.453 321.055 552.982 373.413 552.982 438.02C552.982 502.626 604.453 554.984 667.966 554.984C731.48 554.984 782.95 502.626 782.95 438.02C782.95 373.413 731.285 321.055 667.966 321.055ZM667.966 548.464C607.949 548.464 559.391 499.071 559.391 438.02C559.391 376.969 607.949 327.575 667.966 327.575C727.983 327.575 776.542 376.969 776.542 438.02C776.542 499.071 727.79 548.464 667.966 548.464Z" fill="#5E12A0"/>
<path opacity="0.6" d="M667.965 548.465C727.928 548.465 776.539 499.018 776.539 438.021C776.539 377.024 727.928 327.577 667.965 327.577C608 327.577 559.39 377.024 559.39 438.021C559.39 499.018 608 548.465 667.965 548.465Z" fill="url(#paint4_linear_1804_2198)"/>
<path opacity="0.6" d="M667.188 535.033C607.948 525.352 567.742 468.647 577.454 408.388C581.727 381.715 594.935 358.994 613.581 342.595C586.389 358.599 566.189 386.457 560.75 420.44C551.233 480.699 591.438 537.404 650.485 547.085C683.504 552.617 715.357 542.146 738.86 521.598C718.077 533.847 692.827 539.182 667.188 535.033Z" fill="#A98698"/>
<path opacity="0.6" d="M685.253 329.157C657.866 324.612 631.256 330.935 609.502 344.963C609.114 345.358 608.725 345.753 608.725 345.753C617.077 340.616 629.314 336.072 629.314 336.072C597.848 354.644 588.137 375.784 588.137 375.784C600.373 351.68 636.306 334.689 664.47 333.503C692.633 332.318 711.084 340.814 733.615 359.188C756.146 377.76 769.743 415.694 768.383 445.726C767.218 475.758 751.679 500.059 751.679 500.059C762.361 486.03 768.771 475.758 772.85 465.285C773.627 462.124 774.405 458.964 774.793 455.604C784.504 395.542 744.492 338.838 685.253 329.157Z" fill="url(#paint5_linear_1804_2198)"/>
<path d="M771.1 437.027C771.1 494.915 724.873 541.939 667.964 541.939C611.054 541.939 564.633 494.915 564.633 437.027H771.1Z" fill="url(#paint6_linear_1804_2198)"/>
<g opacity="0.6">
<path opacity="0.6" d="M762.943 437.027C762.943 493.533 719.047 539.765 663.885 541.939C665.245 541.939 666.605 541.939 667.964 541.939C724.874 541.939 771.101 494.915 771.101 437.027H762.943Z" fill="url(#paint7_linear_1804_2198)"/>
</g>
<g opacity="0.7">
<path opacity="0.7" d="M579.201 437.027H564.633C564.633 494.915 610.86 541.939 667.77 541.939C670.295 541.939 672.625 541.939 674.956 541.74C621.543 537.789 579.201 492.347 579.201 437.027Z" fill="url(#paint8_linear_1804_2198)"/>
</g>
<path d="M770.907 438.019C770.907 425.967 750.318 419.051 722.931 416.681C703.119 415.1 683.114 417.075 660.195 424.188C640.383 430.116 622.514 429.127 609.5 427.546C580.56 424.188 564.633 423.793 564.633 438.019C564.633 458.567 605.81 484.251 667.575 475.36C698.847 470.816 714.968 461.53 733.42 455.207C753.426 448.49 770.907 448.687 770.907 438.019Z" fill="url(#paint9_linear_1804_2198)"/>
<path d="M701.762 388.232C711.416 388.232 719.242 380.271 719.242 370.451C719.242 360.63 711.416 352.669 701.762 352.669C692.108 352.669 684.281 360.63 684.281 370.451C684.281 380.271 692.108 388.232 701.762 388.232Z" fill="white"/>
<path d="M730.313 401.472C734.39 401.472 737.695 398.111 737.695 393.964C737.695 389.818 734.39 386.457 730.313 386.457C726.238 386.457 722.933 389.818 722.933 393.964C722.933 398.111 726.238 401.472 730.313 401.472Z" fill="white"/>
<g opacity="0.6">
<path opacity="0.6" d="M756.731 356.231C756.537 356.231 756.343 356.231 756.343 356.231C755.177 356.034 754.401 354.848 754.594 353.465C756.343 344.377 763.724 335.684 764.113 335.288C764.889 334.301 766.443 334.301 767.22 335.091C768.191 335.881 768.191 337.462 767.414 338.252C767.22 338.45 760.421 346.55 758.868 354.453C758.674 355.639 757.703 356.231 756.731 356.231Z" fill="url(#paint10_linear_1804_2198)"/>
</g>
<path opacity="0.2" d="M660.812 520.41C663.816 520.41 666.25 517.933 666.25 514.878C666.25 511.823 663.816 509.346 660.812 509.346C657.808 509.346 655.373 511.823 655.373 514.878C655.373 517.933 657.808 520.41 660.812 520.41Z" fill="white"/>
<g opacity="0.4">
<path opacity="0.6" d="M657.672 518.486C655.535 516.312 655.535 512.756 657.672 510.583C658.06 510.187 658.449 509.99 658.837 509.594C658.06 509.793 657.478 510.187 656.895 510.78C654.759 512.954 654.759 516.51 656.895 518.683C658.643 520.461 661.362 520.857 663.499 519.671C661.557 520.461 659.226 520.067 657.672 518.486Z" fill="url(#paint11_linear_1804_2198)"/>
</g>
<path opacity="0.3" d="M662.722 513.294C663.365 513.294 663.887 512.764 663.887 512.109C663.887 511.454 663.365 510.923 662.722 510.923C662.078 510.923 661.556 511.454 661.556 512.109C661.556 512.764 662.078 513.294 662.722 513.294Z" fill="white"/>
<path opacity="0.2" d="M689.17 517.641C692.175 517.641 694.61 515.163 694.61 512.108C694.61 509.052 692.175 506.576 689.17 506.576C686.167 506.576 683.733 509.052 683.733 512.108C683.733 515.163 686.167 517.641 689.17 517.641Z" fill="white"/>
<g opacity="0.4">
<path opacity="0.6" d="M686.031 515.704C683.894 513.53 683.894 509.973 686.031 507.799C686.419 507.405 686.808 507.207 687.196 506.812C686.419 507.009 685.837 507.405 685.254 507.998C683.118 510.17 683.118 513.727 685.254 515.901C687.003 517.679 689.721 518.073 691.858 516.888C689.916 517.679 687.586 517.283 686.031 515.704Z" fill="url(#paint12_linear_1804_2198)"/>
</g>
<path opacity="0.3" d="M691.081 510.524C691.725 510.524 692.246 509.994 692.246 509.339C692.246 508.685 691.725 508.154 691.081 508.154C690.437 508.154 689.916 508.685 689.916 509.339C689.916 509.994 690.437 510.524 691.081 510.524Z" fill="white"/>
<path opacity="0.2" d="M675.15 530.488C677.403 530.488 679.23 528.631 679.23 526.34C679.23 524.048 677.403 522.191 675.15 522.191C672.898 522.191 671.072 524.048 671.072 526.34C671.072 528.631 672.898 530.488 675.15 530.488Z" fill="white"/>
<g opacity="0.4">
<path opacity="0.6" d="M672.82 528.946C671.266 527.365 671.266 524.6 672.82 523.019C673.014 522.822 673.402 522.624 673.597 522.426C673.014 522.624 672.625 523.019 672.237 523.414C670.683 524.994 670.683 527.761 672.237 529.342C673.597 530.725 675.539 530.922 677.287 529.935C675.733 530.527 673.985 530.132 672.82 528.946Z" fill="url(#paint13_linear_1804_2198)"/>
</g>
<path opacity="0.3" d="M676.51 524.951C676.939 524.951 677.286 524.597 677.286 524.161C677.286 523.725 676.939 523.37 676.51 523.37C676.081 523.37 675.733 523.725 675.733 524.161C675.733 524.597 676.081 524.951 676.51 524.951Z" fill="white"/>
<path opacity="0.2" d="M700.206 527.519C702.459 527.519 704.286 525.662 704.286 523.371C704.286 521.079 702.459 519.222 700.206 519.222C697.955 519.222 696.128 521.079 696.128 523.371C696.128 525.662 697.955 527.519 700.206 527.519Z" fill="white"/>
<g opacity="0.4">
<path opacity="0.6" d="M697.876 525.978C696.323 524.396 696.323 521.631 697.876 520.05C698.071 519.853 698.459 519.656 698.653 519.457C698.071 519.656 697.681 520.05 697.293 520.446C695.739 522.025 695.739 524.792 697.293 526.373C698.653 527.756 700.595 527.953 702.343 526.966C700.79 527.559 699.041 527.163 697.876 525.978Z" fill="url(#paint14_linear_1804_2198)"/>
</g>
<path opacity="0.3" d="M701.566 521.995C701.996 521.995 702.343 521.641 702.343 521.204C702.343 520.767 701.996 520.414 701.566 520.414C701.137 520.414 700.789 520.767 700.789 521.204C700.789 521.641 701.137 521.995 701.566 521.995Z" fill="white"/>
<path opacity="0.2" d="M637.665 518.431C642.599 518.431 646.599 514.362 646.599 509.342C646.599 504.323 642.599 500.254 637.665 500.254C632.73 500.254 628.73 504.323 628.73 509.342C628.73 514.362 632.73 518.431 637.665 518.431Z" fill="white"/>
<g opacity="0.4">
<path opacity="0.6" d="M632.62 515.075C629.124 511.519 629.124 505.788 632.62 502.233C633.203 501.64 633.785 501.245 634.562 500.849C633.397 501.245 632.426 502.035 631.455 502.826C627.958 506.381 627.958 512.111 631.455 515.668C634.368 518.632 638.835 519.224 642.332 517.051C639.03 518.433 635.145 517.84 632.62 515.075Z" fill="url(#paint15_linear_1804_2198)"/>
</g>
<path opacity="0.3" d="M640.774 506.577C641.847 506.577 642.717 505.693 642.717 504.602C642.717 503.51 641.847 502.626 640.774 502.626C639.702 502.626 638.832 503.51 638.832 504.602C638.832 505.693 639.702 506.577 640.774 506.577Z" fill="white"/>
<path opacity="0.2" d="M717.525 496.109C722.46 496.109 726.459 492.039 726.459 487.02C726.459 482.001 722.46 477.932 717.525 477.932C712.591 477.932 708.59 482.001 708.59 487.02C708.59 492.039 712.591 496.109 717.525 496.109Z" fill="white"/>
<g opacity="0.4">
<path opacity="0.6" d="M712.251 492.753C708.754 489.196 708.754 483.467 712.251 479.911C712.833 479.318 713.416 478.922 714.193 478.527C713.027 478.922 712.056 479.712 711.086 480.504C707.589 484.06 707.589 489.789 711.086 493.346C713.999 496.309 718.466 496.902 721.963 494.728C718.66 496.112 714.969 495.519 712.251 492.753Z" fill="url(#paint16_linear_1804_2198)"/>
</g>
<path opacity="0.3" d="M720.602 484.256C721.675 484.256 722.544 483.371 722.544 482.279C722.544 481.188 721.675 480.304 720.602 480.304C719.529 480.304 718.659 481.188 718.659 482.279C718.659 483.371 719.529 484.256 720.602 484.256Z" fill="white"/>
<circle cx="465" cy="414" r="158.75" fill="#2B303C" stroke="#6151C8" stroke-width="0.5"/>
<g clip-path="url(#clip0_1804_2198)">
<path fill-rule="evenodd" clip-rule="evenodd" d="M465 265.885C546.802 265.885 613.116 332.198 613.116 414C613.116 495.802 546.802 562.116 465 562.116C383.198 562.116 316.885 495.802 316.885 414C316.885 332.198 383.198 265.885 465 265.885Z" fill="#2E3148"/>
<path fill-rule="evenodd" clip-rule="evenodd" d="M464.715 328.549C511.909 328.549 550.166 366.807 550.166 414C550.166 461.193 511.909 499.451 464.715 499.451C417.522 499.451 379.264 461.193 379.264 414C379.264 366.807 417.522 328.549 464.715 328.549Z" fill="#161931"/>
<path fill-rule="evenodd" clip-rule="evenodd" d="M467.327 291.219C466.15 290.136 465.543 290.116 465.441 290.116C465.339 290.116 464.731 290.136 463.555 291.219C462.347 292.331 460.903 294.249 459.348 297.208C456.243 303.114 453.271 312.041 450.71 323.56C445.608 346.504 442.402 378.483 442.402 414C442.402 449.518 445.608 481.496 450.71 504.44C453.271 515.959 456.243 524.886 459.348 530.793C460.903 533.752 462.347 535.67 463.555 536.781C464.731 537.864 465.339 537.884 465.441 537.884C465.543 537.884 466.15 537.864 467.327 536.781C468.534 535.67 469.978 533.752 471.534 530.793C474.638 524.886 477.61 515.959 480.172 504.44C485.273 481.496 488.479 449.518 488.479 414C488.479 378.483 485.273 346.504 480.172 323.56C477.61 312.041 474.638 303.114 471.534 297.208C469.978 294.249 468.534 292.331 467.327 291.219ZM494.276 414C494.276 342.379 481.366 284.319 465.441 284.319C449.515 284.319 436.605 342.379 436.605 414C436.605 485.621 449.515 543.681 465.441 543.681C481.366 543.681 494.276 485.621 494.276 414Z" fill="#6F7390"/>
<path fill-rule="evenodd" clip-rule="evenodd" d="M572.782 354.238C573.132 352.679 572.846 352.146 572.796 352.06C572.746 351.974 572.426 351.458 570.898 350.981C569.33 350.491 566.946 350.2 563.603 350.334C556.932 350.599 547.709 352.491 536.445 356.034C514.011 363.091 484.696 376.306 453.918 394.064C423.14 411.823 397.031 430.587 379.699 446.475C370.997 454.451 364.747 461.487 361.181 467.127C359.395 469.953 358.455 472.162 358.096 473.762C357.746 475.321 358.032 475.854 358.082 475.94C358.131 476.026 358.452 476.542 359.98 477.019C361.547 477.509 363.932 477.8 367.275 477.667C373.946 477.4 383.169 475.509 394.432 471.966C416.867 464.909 446.181 451.694 476.96 433.936C507.738 416.177 533.847 397.413 551.179 381.525C559.881 373.549 566.131 366.513 569.697 360.873C571.483 358.047 572.423 355.838 572.782 354.238ZM353.062 478.84C361.025 492.623 417.793 474.767 479.857 438.957C541.921 403.147 585.778 362.943 577.816 349.16C569.853 335.377 513.085 353.233 451.021 389.043C388.957 424.853 345.099 465.057 353.062 478.84Z" fill="#6F7390"/>
<path fill-rule="evenodd" clip-rule="evenodd" d="M577.816 478.84C585.778 465.057 541.921 424.853 479.857 389.043C417.793 353.233 361.025 335.377 353.062 349.16C345.099 362.943 388.957 403.147 451.021 438.957C513.085 474.767 569.853 492.623 577.816 478.84ZM358.082 352.06C358.131 351.973 358.452 351.458 359.98 350.981C361.547 350.491 363.932 350.2 367.275 350.334C373.946 350.599 383.169 352.491 394.432 356.034C416.867 363.091 446.181 376.306 476.96 394.064C507.738 411.823 533.847 430.587 551.179 446.475C559.881 454.451 566.131 461.487 569.697 467.127C571.483 469.953 572.423 472.162 572.782 473.762C573.132 475.321 572.846 475.854 572.796 475.94C572.746 476.026 572.426 476.542 570.898 477.019C569.33 477.509 566.946 477.8 563.603 477.667C556.932 477.4 547.709 475.509 536.445 471.966C514.011 464.909 484.696 451.694 453.918 433.936C423.14 416.177 397.031 397.413 379.699 381.525C370.997 373.549 364.747 366.513 361.181 360.873C359.395 358.047 358.455 355.838 358.096 354.238C357.746 352.68 358.032 352.146 358.082 352.06Z" fill="#6F7390"/>
<path fill-rule="evenodd" clip-rule="evenodd" d="M382.553 377.684C387.589 377.684 391.672 381.768 391.672 386.807C391.672 391.846 387.589 395.931 382.553 395.931C377.517 395.931 373.434 391.846 373.434 386.807C373.434 381.768 377.517 377.684 382.553 377.684Z" fill="#B7B9C8"/>
<path fill-rule="evenodd" clip-rule="evenodd" d="M527.486 346.44C532.525 346.44 536.61 350.525 536.61 355.564C536.61 360.603 532.525 364.688 527.486 364.688C522.447 364.688 518.363 360.603 518.363 355.564C518.363 350.525 522.447 346.44 527.486 346.44Z" fill="#B7B9C8"/>
<path fill-rule="evenodd" clip-rule="evenodd" d="M447.064 489.642C452.103 489.642 456.188 493.725 456.188 498.761C456.188 503.798 452.103 507.881 447.064 507.881C442.025 507.881 437.94 503.798 437.94 498.761C437.94 493.725 442.025 489.642 447.064 489.642Z" fill="#B7B9C8"/>
<path fill-rule="evenodd" clip-rule="evenodd" d="M464.933 398.486C473.464 398.486 480.379 405.402 480.379 413.933C480.379 422.464 473.464 429.379 464.933 429.379C456.402 429.379 449.486 422.464 449.486 413.933C449.486 405.402 456.402 398.486 464.933 398.486Z" fill="#B7B9C8"/>
</g>
<defs>
<linearGradient id="paint0_linear_1804_2198" x1="1170.5" y1="255" x2="1341" y2="563.5" gradientUnits="userSpaceOnUse">
<stop stop-color="#745EFF"/>
<stop offset="1" stop-color="#41DDCA"/>
</linearGradient>
<linearGradient id="paint1_linear_1804_2198" x1="1149.5" y1="286.5" x2="1365.18" y2="542.082" gradientUnits="userSpaceOnUse">
<stop stop-color="#7761FF"/>
<stop offset="1" stop-color="#40DBC8"/>
</linearGradient>
<radialGradient id="paint2_radial_1804_2198" cx="0" cy="0" r="1" gradientUnits="userSpaceOnUse" gradientTransform="translate(788.147 324.222) scale(86.8102 88.3049)">
<stop stop-color="#FFEAFF" stop-opacity="0.6"/>
<stop offset="0.6807" stop-color="#A087C9"/>
<stop offset="1" stop-color="#10002F"/>
</radialGradient>
<radialGradient id="paint3_radial_1804_2198" cx="0" cy="0" r="1" gradientUnits="userSpaceOnUse" gradientTransform="translate(765.423 418.407) scale(243.124 263.025)">
<stop stop-color="#FFEAFF" stop-opacity="0.6"/>
<stop offset="0.6807" stop-color="#A087C9"/>
<stop offset="1" stop-color="#10002F"/>
</radialGradient>
<linearGradient id="paint4_linear_1804_2198" x1="650.548" y1="546.899" x2="686.451" y2="329.154" gradientUnits="userSpaceOnUse">
<stop stop-color="#81FFFF"/>
<stop offset="0.6202" stop-color="white" stop-opacity="0"/>
</linearGradient>
<linearGradient id="paint5_linear_1804_2198" x1="744.483" y1="363.014" x2="653.303" y2="445.259" gradientUnits="userSpaceOnUse">
<stop offset="0.2888" stop-color="white"/>
<stop offset="0.7796" stop-color="white" stop-opacity="0"/>
</linearGradient>
<linearGradient id="paint6_linear_1804_2198" x1="564.721" y1="489.42" x2="771.05" y2="489.42" gradientUnits="userSpaceOnUse">
<stop stop-color="#0002E9"/>
<stop offset="0.9952" stop-color="#FF00C7"/>
</linearGradient>
<linearGradient id="paint7_linear_1804_2198" x1="780.818" y1="446.232" x2="666.706" y2="552.248" gradientUnits="userSpaceOnUse">
<stop offset="0.2888" stop-color="white"/>
<stop offset="0.7796" stop-color="white" stop-opacity="0"/>
</linearGradient>
<linearGradient id="paint8_linear_1804_2198" x1="564.721" y1="489.42" x2="675.106" y2="489.42" gradientUnits="userSpaceOnUse">
<stop stop-color="#000292"/>
<stop offset="0.9952" stop-color="#7D00C7"/>
</linearGradient>
<linearGradient id="paint9_linear_1804_2198" x1="564.859" y1="446.734" x2="770.912" y2="446.734" gradientUnits="userSpaceOnUse">
<stop stop-color="#000292"/>
<stop offset="0.9952" stop-color="#BE00C7"/>
</linearGradient>
<linearGradient id="paint10_linear_1804_2198" x1="767.536" y1="334.326" x2="752.356" y2="358.574" gradientUnits="userSpaceOnUse">
<stop offset="0.2888" stop-color="white"/>
<stop offset="0.7796" stop-color="white" stop-opacity="0"/>
</linearGradient>
<linearGradient id="paint11_linear_1804_2198" x1="655.287" y1="515.098" x2="663.505" y2="515.098" gradientUnits="userSpaceOnUse">
<stop offset="0.2888" stop-color="white"/>
<stop offset="0.7796" stop-color="white" stop-opacity="0"/>
</linearGradient>
<linearGradient id="paint12_linear_1804_2198" x1="683.627" y1="512.278" x2="691.844" y2="512.278" gradientUnits="userSpaceOnUse">
<stop offset="0.2888" stop-color="white"/>
<stop offset="0.7796" stop-color="white" stop-opacity="0"/>
</linearGradient>
<linearGradient id="paint13_linear_1804_2198" x1="670.962" y1="526.418" x2="677.132" y2="526.418" gradientUnits="userSpaceOnUse">
<stop offset="0.2888" stop-color="white"/>
<stop offset="0.7796" stop-color="white" stop-opacity="0"/>
</linearGradient>
<linearGradient id="paint14_linear_1804_2198" x1="696.019" y1="523.449" x2="702.188" y2="523.449" gradientUnits="userSpaceOnUse">
<stop offset="0.2888" stop-color="white"/>
<stop offset="0.7796" stop-color="white" stop-opacity="0"/>
</linearGradient>
<linearGradient id="paint15_linear_1804_2198" x1="628.743" y1="509.578" x2="642.164" y2="509.578" gradientUnits="userSpaceOnUse">
<stop offset="0.2888" stop-color="white"/>
<stop offset="0.7796" stop-color="white" stop-opacity="0"/>
</linearGradient>
<linearGradient id="paint16_linear_1804_2198" x1="708.449" y1="487.248" x2="721.868" y2="487.248" gradientUnits="userSpaceOnUse">
<stop offset="0.2888" stop-color="white"/>
<stop offset="0.7796" stop-color="white" stop-opacity="0"/>
</linearGradient>
<clipPath id="clip0_1804_2198">
<rect width="296.8" height="296.8" fill="white" transform="translate(316.6 265.6)"/>
</clipPath>
</defs>
</svg>
