<svg width="1722" height="827" viewBox="0 0 1722 827" fill="none" xmlns="http://www.w3.org/2000/svg">
<rect width="1722" height="827" fill="#191D24"/>
<path d="M1126.99 491.037L1071.11 336.913C1068.65 330.771 1063.12 326.475 1056.37 326.475H985.143V137.351C985.143 128.755 978.388 122 969.792 122H752.422C743.826 122 737.071 128.755 737.071 137.351V326.475H665.846C659.091 326.475 653.566 330.775 651.108 336.913L595.229 491.037C594.617 492.879 594 494.721 594 496.562V689.985C594 698.581 600.755 705.336 609.351 705.336H1111.02C1119.62 705.336 1126.37 698.581 1126.37 689.985L1126.38 496.562C1127.6 494.721 1127.6 492.875 1126.99 491.033L1126.99 491.037ZM953.826 153.315V403.844H768.386V153.315H953.826ZM676.894 357.791H737.069V403.844H719.264C710.668 403.844 703.913 410.598 703.913 419.194C703.913 427.791 710.668 434.545 719.264 434.545H1002.95C1011.55 434.545 1018.3 427.791 1018.3 419.194C1018.3 410.598 1011.55 403.844 1002.95 403.844H985.145V357.791H1045.32L1089.53 480.598H632.072L676.894 357.791ZM625.929 674.021V511.914H1096.9V674.021H625.929Z" fill="#4FCABB"/>
<path d="M861.079 197L927.763 235.5V312.5L861.079 351L794.395 312.5V235.5L861.079 197Z" fill="black" stroke="url(#paint0_linear_1903_2344)" stroke-width="8"/>
<mask id="mask0_1903_2344" style="mask-type:alpha" maskUnits="userSpaceOnUse" x="794" y="197" width="134" height="154">
<path d="M861 197L927.684 235.5V312.5L861 351L794.316 312.5V235.5L861 197Z" fill="white"/>
</mask>
<g mask="url(#mask0_1903_2344)">
<path d="M792.089 249.745L817.499 266.685M792.089 249.745C792.089 249.745 776.885 259.563 775.727 261.295C774.568 263.028 775.153 280.93 775.727 283.048C776.3 285.165 787.465 301.143 788.624 302.105M792.089 249.745C792.089 249.745 792.089 244.933 792.089 243.585C792.089 242.238 800.559 235.885 800.559 235.885M817.499 266.685C817.499 266.685 815.852 281.508 815.574 284.01M817.499 266.685C818.577 265.607 827.83 260.59 832.322 258.215M815.574 284.01C813.068 284.973 799.149 295.039 788.624 302.105M815.574 284.01C817.499 286.128 843.679 303.453 843.679 303.453M788.624 302.105C788.624 303.684 788.624 304.8 788.624 306.148C788.624 307.495 803.254 319.43 803.254 319.43M800.559 235.885L801.907 219.715C801.907 219.715 808.259 209.898 817.499 208.743M800.559 235.885L826.547 228.955M826.547 228.955L817.499 208.743M826.547 228.955L837.519 236.848M817.499 208.743L832.322 196.615M832.322 258.215L837.519 245.318M832.322 258.215C832.322 258.215 845.215 270.92 861.197 281.508M837.519 245.318L862.737 252.44M837.519 245.318C836.595 243.932 837.134 239.094 837.519 236.848M862.737 252.44L875.249 265.53M862.737 252.44V235.885M875.249 265.53L870.629 278.043M875.249 265.53L889.879 255.135M870.629 278.043L868.127 280.353M870.629 278.043C870.629 278.043 884.104 285.743 898.349 291.133M868.127 280.353C868.127 280.353 863.695 280.738 861.197 281.508M868.127 280.353C868.127 280.353 872.935 285.55 884.104 309.998M861.197 281.508C851.568 296.138 843.679 303.453 843.679 303.453M843.679 303.453L803.254 319.43M843.679 303.453L847.529 316.543M803.254 319.43L804.113 325.013C807.24 328.228 812.168 333.305 816.055 337.333C819.15 340.54 821.585 343.083 821.927 343.493M837.519 236.848C839.059 236.078 844.834 231.265 847.529 228.955M847.529 228.955L852.149 216.635M847.529 228.955L862.737 235.885M852.149 216.635C843.679 206.24 841.173 203.738 832.322 196.615M852.149 216.635L866.394 208.743M832.322 196.615C833.092 196.615 850.224 190.648 853.689 190.648C857.154 190.648 868.127 201.62 868.127 201.62M868.127 201.62L866.394 208.743M868.127 201.62L876.019 196.615M866.394 208.743L884.104 230.88M884.104 230.88L862.737 235.885M884.104 230.88L890.649 234.153C890.649 234.153 898.862 226.879 904.124 222.218M876.019 196.615C876.019 196.615 890.649 211.823 904.124 222.218M876.019 196.615L887.377 194.305L901.814 197.963L911.824 209.898L913.749 219.715M904.124 222.218C907.883 220.79 913.749 218.56 913.749 218.56L925.107 228.955M890.649 234.73L889.879 255.135M889.879 255.135C889.879 255.135 902.55 260.884 910.669 264.568M910.669 264.568C920.29 249.745 925.107 228.955 925.107 228.955M910.669 264.568C912.398 266.523 915.097 269.573 915.097 269.573M925.107 228.955C929.419 234.345 934.475 245.061 936.464 249.745L929.919 264.568M929.919 264.568L915.097 269.573M929.919 264.568L940.699 278.043L939.544 303.453M915.097 269.573V284.01M915.097 284.01L906.627 291.133M915.097 284.01L939.544 303.453M906.627 291.133C906.627 291.133 901.582 291.133 898.349 291.133M906.627 291.133C906.627 291.133 907.2 305.378 904.124 319.43M898.349 291.133C892.786 298.5 892.378 297.293 884.104 309.998M884.104 309.998C884.104 313.682 884.104 319.43 884.104 319.43M904.124 319.43C901.268 320.333 899.666 320.838 896.809 321.74M904.124 319.43C908.409 321.611 915.097 325.013 915.097 325.013M896.809 321.74C891.848 320.838 884.104 319.43 884.104 319.43M896.809 321.74C897.383 334.638 896.49 336.105 896.039 345.803M884.104 319.43C884.104 319.43 874.09 325.783 868.127 330.21M847.529 316.543C847.529 316.543 859.845 325.013 868.127 330.21M847.529 316.543C839.316 325.911 822.697 344.417 821.927 343.493M939.544 303.453V312.5L929.919 320.393L915.097 325.013M915.097 325.013C915.097 325.013 903.632 337.383 896.039 345.803M896.039 345.803C893.729 346.38 869.474 342.338 869.474 342.338M869.474 342.338C869.474 342.338 868.893 334.638 868.127 330.21M869.474 342.338C869.474 342.338 867.934 346.958 867.164 348.305C866.394 349.653 846.563 361.78 843.679 361.78C840.796 361.78 821.927 351.193 821.927 348.305C821.927 345.418 821.927 343.493 821.927 343.493" stroke="url(#paint1_linear_1903_2344)" stroke-width="8"/>
</g>
<defs>
<linearGradient id="paint0_linear_1903_2344" x1="809.41" y1="197" x2="898.73" y2="356.005" gradientUnits="userSpaceOnUse">
<stop stop-color="#8C79FF"/>
<stop offset="1" stop-color="#4FCABB"/>
</linearGradient>
<linearGradient id="paint1_linear_1903_2344" x1="809.025" y1="196.615" x2="898.345" y2="356.775" gradientUnits="userSpaceOnUse">
<stop stop-color="#8C79FF"/>
<stop offset="1" stop-color="#4FCABB"/>
</linearGradient>
</defs>
</svg>
