<svg width="500" height="500" viewBox="0 0 500 500" fill="none" xmlns="http://www.w3.org/2000/svg">
<rect width="500" height="500" fill="black"/>
<path d="M250.231 25L445.086 137.5V362.5L250.231 475L55.375 362.5V137.5L250.231 25Z" fill="black" stroke="url(#paint0_linear_1583_2806)" stroke-width="15"/>
<mask id="mask0_1583_2806" style="mask-type:alpha" maskUnits="userSpaceOnUse" x="55" y="25" width="390" height="450">
<path d="M250 25L444.856 137.5V362.5L250 475L55.1443 362.5V137.5L250 25Z" fill="white"/>
</mask>
<g mask="url(#mask0_1583_2806)">
<path d="M48.6369 179.125L122.887 228.625M48.6369 179.125C48.6369 179.125 4.20976 207.812 0.824428 212.875C-2.5609 217.938 -0.851752 270.25 0.824428 276.438C2.50061 282.625 35.1256 329.312 38.5119 332.125M48.6369 179.125C48.6369 179.125 48.6369 165.063 48.6369 161.125C48.6369 157.188 73.387 138.625 73.387 138.625M122.887 228.625C122.887 228.625 118.074 271.938 117.262 279.25M122.887 228.625C126.037 225.475 153.074 210.813 166.199 203.875M117.262 279.25C109.938 282.062 69.2657 311.476 38.5119 332.125M117.262 279.25C122.887 285.438 199.387 336.062 199.387 336.062M38.5119 332.125C38.5119 336.738 38.5119 340 38.5119 343.938C38.5119 347.875 81.262 382.75 81.262 382.75M73.387 138.625L77.3245 91.375C77.3245 91.375 95.887 62.6875 122.887 59.3125M73.387 138.625L149.324 118.375M149.324 118.375L122.887 59.3125M149.324 118.375L181.387 141.438M122.887 59.3125L166.199 23.875M166.199 203.875L181.387 166.188M166.199 203.875C166.199 203.875 203.875 241 250.574 271.938M181.387 166.188L255.074 187M181.387 166.188C178.687 162.138 180.262 148 181.387 141.438M255.074 187L291.637 225.25M255.074 187V138.625M291.637 225.25L278.137 261.813M291.637 225.25L334.387 194.875M278.137 261.813L270.824 268.562M278.137 261.813C278.137 261.813 317.512 284.312 359.137 300.062M270.824 268.562C270.824 268.562 257.875 269.688 250.574 271.938M270.824 268.562C270.824 268.562 284.875 283.75 317.512 355.188M250.574 271.938C222.438 314.688 199.387 336.062 199.387 336.062M199.387 336.062L81.262 382.75M199.387 336.062L210.637 374.312M81.262 382.75L83.7716 399.062C92.9093 408.457 107.309 423.291 118.667 435.062C127.711 444.435 134.827 451.866 135.824 453.062M181.387 141.438C185.887 139.188 202.762 125.125 210.637 118.375M210.637 118.375L224.137 82.375M210.637 118.375L255.074 138.625M224.137 82.375C199.387 52 192.063 44.6875 166.199 23.875M224.137 82.375L265.762 59.3125M166.199 23.875C168.449 23.875 218.512 6.43844 228.637 6.4375C238.762 6.43656 270.824 38.5 270.824 38.5M270.824 38.5L265.762 59.3125M270.824 38.5L293.887 23.875M265.762 59.3125L317.512 124M317.512 124L255.074 138.625M317.512 124L336.637 133.563C336.637 133.563 360.635 112.307 376.012 98.6875M293.887 23.875C293.887 23.875 336.637 68.3125 376.012 98.6875M293.887 23.875L327.074 17.125L369.262 27.8125L398.512 62.6875L404.137 91.375M376.012 98.6875C386.995 94.5138 404.137 88 404.137 88L437.324 118.375M336.637 135.25L334.387 194.875M334.387 194.875C334.387 194.875 371.413 211.674 395.137 222.438M395.137 222.438C423.25 179.125 437.324 118.375 437.324 118.375M395.137 222.438C400.189 228.149 408.074 237.063 408.074 237.063M437.324 118.375C449.924 134.125 464.699 165.438 470.512 179.125L451.387 222.438M451.387 222.438L408.074 237.063M451.387 222.438L482.887 261.813L479.512 336.062M408.074 237.063V279.25M408.074 279.25L383.324 300.062M408.074 279.25L479.512 336.062M383.324 300.062C383.324 300.062 368.583 300.062 359.137 300.062M383.324 300.062C383.324 300.062 385 341.688 376.012 382.75M359.137 300.062C342.881 321.59 341.688 318.062 317.512 355.188M317.512 355.188C317.512 365.951 317.512 382.75 317.512 382.75M376.012 382.75C367.665 385.386 362.984 386.864 354.637 389.5M376.012 382.75C388.533 389.12 408.074 399.062 408.074 399.062M354.637 389.5C340.139 386.864 317.512 382.75 317.512 382.75M354.637 389.5C356.313 427.188 353.705 431.475 352.387 459.812M317.512 382.75C317.512 382.75 288.25 401.312 270.824 414.25M210.637 374.312C210.637 374.312 246.625 399.062 270.824 414.25M210.637 374.312C186.637 401.688 138.074 455.763 135.824 453.062M479.512 336.062V362.5L451.387 385.562L408.074 399.062M408.074 399.062C408.074 399.062 374.574 435.209 352.387 459.812M352.387 459.812C345.637 461.5 274.762 449.688 274.762 449.688M274.762 449.688C274.762 449.688 273.063 427.188 270.824 414.25M274.762 449.688C274.762 449.688 270.262 463.188 268.012 467.125C265.762 471.062 207.813 506.5 199.387 506.5C190.961 506.5 135.824 475.562 135.824 467.125C135.824 458.688 135.824 453.062 135.824 453.062" stroke="url(#paint1_linear_1583_2806)" stroke-width="9"/>
</g>
<defs>
<linearGradient id="paint0_linear_1583_2806" x1="99.25" y1="25" x2="360.25" y2="489.625" gradientUnits="userSpaceOnUse">
<stop stop-color="#8C79FF"/>
<stop offset="1" stop-color="#4FCABB"/>
</linearGradient>
<linearGradient id="paint1_linear_1583_2806" x1="98.1255" y1="23.875" x2="359.125" y2="491.875" gradientUnits="userSpaceOnUse">
<stop stop-color="#8C79FF"/>
<stop offset="1" stop-color="#4FCABB"/>
</linearGradient>
</defs>
</svg>
